<svg version="1.1" viewBox="0.0 0.0 1280.0 960.0" fill="none" stroke="none" stroke-linecap="square" stroke-miterlimit="10" xmlns:xlink="http://www.w3.org/1999/xlink" xmlns="http://www.w3.org/2000/svg"><clipPath id="p.0"><path d="m0 0l1280.0 0l0 960.0l-1280.0 0l0 -960.0z" clip-rule="nonzero"/></clipPath><g clip-path="url(#p.0)"><path fill="#000000" fill-opacity="0.0" d="m0 0l1280.0 0l0 960.0l-1280.0 0z" fill-rule="evenodd"/><path fill="#000000" fill-opacity="0.0" d="m330.75327 130.75853l72.44095 0l0 45.039368l-72.44095 0z" fill-rule="evenodd"/><path stroke="#000000" stroke-width="2.0" stroke-linejoin="round" stroke-linecap="butt" d="m330.75327 130.75853l72.44095 0l0 45.039368l-72.44095 0z" fill-rule="evenodd"/><path fill="#000000" d="m345.88882 149.19821l0 -13.359375l1.765625 0l0 13.359375l-1.765625 0zm4.683319 0l0 -9.671875l1.46875 0l0 1.375q1.0625 -1.59375 3.078125 -1.59375q0.875 0 1.609375 0.3125q0.734375 0.3125 1.09375 0.828125q0.375 0.5 0.515625 1.203125q0.09375 0.453125 0.09375 1.59375l0 5.953125l-1.640625 0l0 -5.890625q0 -1.0 -0.203125 -1.484375q-0.1875 -0.5 -0.671875 -0.796875q-0.484375 -0.296875 -1.140625 -0.296875q-1.046875 0 -1.8125 0.671875q-0.75 0.65625 -0.75 2.515625l0 5.28125l-1.640625 0zm11.875702 0l-1.515625 0l0 -13.359375l1.640625 0l0 4.765625q1.046875 -1.296875 2.65625 -1.296875q0.890625 0 1.6875 0.359375q0.796875 0.359375 1.3125 1.015625q0.515625 0.640625 0.796875 1.5625q0.296875 0.921875 0.296875 1.96875q0 2.484375 -1.234375 3.84375q-1.21875 1.359375 -2.953125 1.359375q-1.703125 0 -2.6875 -1.4375l0 1.21875zm-0.015625 -4.90625q0 1.734375 0.484375 2.515625q0.765625 1.265625 2.09375 1.265625q1.078125 0 1.859375 -0.9375q0.78125 -0.9375 0.78125 -2.78125q0 -1.890625 -0.75 -2.796875q-0.75 -0.90625 -1.828125 -0.90625q-1.0625 0 -1.859375 0.9375q-0.78125 0.9375 -0.78125 2.703125zm8.281982 0.0625q0 -2.6875 1.484375 -3.96875q1.25 -1.078125 3.046875 -1.078125q2.0 0 3.265625 1.3125q1.265625 1.296875 1.265625 3.609375q0 1.859375 -0.5625 2.9375q-0.5625 1.0625 -1.640625 1.65625q-1.0625 0.59375 -2.328125 0.59375q-2.03125 0 -3.28125 -1.296875q-1.25 -1.3125 -1.25 -3.765625zm1.6875 0q0 1.859375 0.796875 2.796875q0.8125 0.921875 2.046875 0.921875q1.21875 0 2.03125 -0.921875q0.8125 -0.9375 0.8125 -2.84375q0 -1.796875 -0.8125 -2.71875q-0.8125 -0.921875 -2.03125 -0.921875q-1.234375 0 -2.046875 0.921875q-0.796875 0.90625 -0.796875 2.765625zm8.203827 4.84375l3.53125 -5.03125l-3.265625 -4.640625l2.046875 0l1.484375 2.265625q0.421875 0.640625 0.671875 1.078125q0.40625 -0.59375 0.734375 -1.0625l1.640625 -2.28125l1.953125 0l-3.34375 4.546875l3.59375 5.125l-2.015625 0l-1.984375 -3.0l-0.515625 -0.8125l-2.546875 3.8125l-1.984375 0z" fill-rule="nonzero"/><path fill="#000000" d="m362.56714 164.60446q0 -2.359375 0.484375 -3.796875q0.484375 -1.453125 1.4375 -2.234375q0.96875 -0.78125 2.421875 -0.78125q1.078125 0 1.890625 0.4375q0.8125 0.421875 1.328125 1.25q0.53125 0.8125 0.828125 1.984375q0.3125 1.15625 0.3125 3.140625q0 2.359375 -0.484375 3.8125q-0.484375 1.4375 -1.453125 2.234375q-0.953125 0.78125 -2.421875 0.78125q-1.921875 0 -3.03125 -1.390625q-1.3125 -1.671875 -1.3125 -5.4375zm1.671875 0q0 3.296875 0.765625 4.390625q0.78125 1.078125 1.90625 1.078125q1.140625 0 1.90625 -1.09375q0.765625 -1.09375 0.765625 -4.375q0 -3.296875 -0.765625 -4.375q-0.765625 -1.078125 -1.921875 -1.078125q-1.125 0 -1.796875 0.953125q-0.859375 1.21875 -0.859375 4.5z" fill-rule="nonzero"/><path fill="#000000" fill-opacity="0.0" d="m331.66953 206.28609l72.44095 0l0 45.039368l-72.44095 0z" fill-rule="evenodd"/><path stroke="#000000" stroke-width="2.0" stroke-linejoin="round" stroke-linecap="butt" d="m331.66953 206.28609l72.44095 0l0 45.039368l-72.44095 0z" fill-rule="evenodd"/><path fill="#000000" d="m346.80508 224.72577l0 -13.359375l1.765625 0l0 13.359375l-1.765625 0zm4.6832886 0l0 -9.671875l1.46875 0l0 1.375q1.0625 -1.59375 3.078125 -1.59375q0.875 0 1.609375 0.3125q0.734375 0.3125 1.09375 0.828125q0.375 0.5 0.515625 1.203125q0.09375 0.453125 0.09375 1.59375l0 5.953125l-1.640625 0l0 -5.890625q0 -1.0 -0.203125 -1.484375q-0.1875 -0.5 -0.671875 -0.796875q-0.484375 -0.296875 -1.140625 -0.296875q-1.046875 0 -1.8125 0.671875q-0.75 0.65625 -0.75 2.515625l0 5.28125l-1.640625 0zm11.875732 0l-1.515625 0l0 -13.359375l1.640625 0l0 4.765625q1.046875 -1.296875 2.65625 -1.296875q0.890625 0 1.6875 0.359375q0.796875 0.359375 1.3125 1.015625q0.515625 0.640625 0.796875 1.5625q0.296875 0.921875 0.296875 1.96875q0 2.484375 -1.234375 3.84375q-1.21875 1.359375 -2.953125 1.359375q-1.703125 0 -2.6875 -1.4375l0 1.21875zm-0.015625 -4.90625q0 1.734375 0.484375 2.515625q0.765625 1.265625 2.09375 1.265625q1.078125 0 1.859375 -0.9375q0.78125 -0.9375 0.78125 -2.78125q0 -1.890625 -0.75 -2.796875q-0.75 -0.90625 -1.828125 -0.90625q-1.0625 0 -1.859375 0.9375q-0.78125 0.9375 -0.78125 2.703125zm8.281952 0.0625q0 -2.6875 1.484375 -3.96875q1.25 -1.078125 3.046875 -1.078125q2.0 0 3.265625 1.3125q1.265625 1.296875 1.265625 3.609375q0 1.859375 -0.5625 2.9375q-0.5625 1.0625 -1.640625 1.65625q-1.0625 0.59375 -2.328125 0.59375q-2.03125 0 -3.28125 -1.296875q-1.25 -1.3125 -1.25 -3.765625zm1.6875 0q0 1.859375 0.796875 2.796875q0.8125 0.921875 2.046875 0.921875q1.21875 0 2.03125 -0.921875q0.8125 -0.9375 0.8125 -2.84375q0 -1.796875 -0.8125 -2.71875q-0.8125 -0.921875 -2.03125 -0.921875q-1.234375 0 -2.046875 0.921875q-0.796875 0.90625 -0.796875 2.765625zm8.203857 4.84375l3.53125 -5.03125l-3.265625 -4.640625l2.046875 0l1.484375 2.265625q0.421875 0.640625 0.671875 1.078125q0.40625 -0.59375 0.734375 -1.0625l1.640625 -2.28125l1.953125 0l-3.34375 4.546875l3.59375 5.125l-2.015625 0l-1.984375 -3.0l-0.515625 -0.8125l-2.546875 3.8125l-1.984375 0z" fill-rule="nonzero"/><path fill="#000000" d="m369.65524 246.72577l-1.640625 0l0 -10.453125q-0.59375 0.5625 -1.5625 1.140625q-0.953125 0.5625 -1.71875 0.84375l0 -1.59375q1.375 -0.640625 2.40625 -1.5625q1.03125 -0.921875 1.453125 -1.78125l1.0625 0l0 13.40625z" fill-rule="nonzero"/><path fill="#000000" fill-opacity="0.0" d="m330.75327 281.81366l72.44095 0l0 45.039368l-72.44095 0z" fill-rule="evenodd"/><path stroke="#000000" stroke-width="2.0" stroke-linejoin="round" stroke-linecap="butt" d="m330.75327 281.81366l72.44095 0l0 45.039368l-72.44095 0z" fill-rule="evenodd"/><path fill="#000000" d="m345.88882 300.25333l0 -13.359375l1.765625 0l0 13.359375l-1.765625 0zm4.683319 0l0 -9.671875l1.46875 0l0 1.375q1.0625 -1.59375 3.078125 -1.59375q0.875 0 1.609375 0.3125q0.734375 0.3125 1.09375 0.828125q0.375 0.5 0.515625 1.203125q0.09375 0.453125 0.09375 1.59375l0 5.953125l-1.640625 0l0 -5.890625q0 -1.0 -0.203125 -1.484375q-0.1875 -0.5 -0.671875 -0.796875q-0.484375 -0.296875 -1.140625 -0.296875q-1.046875 0 -1.8125 0.671875q-0.75 0.65625 -0.75 2.515625l0 5.28125l-1.640625 0zm11.875702 0l-1.515625 0l0 -13.359375l1.640625 0l0 4.765625q1.046875 -1.296875 2.65625 -1.296875q0.890625 0 1.6875 0.359375q0.796875 0.359375 1.3125 1.015625q0.515625 0.640625 0.796875 1.5625q0.296875 0.921875 0.296875 1.96875q0 2.484375 -1.234375 3.84375q-1.21875 1.359375 -2.953125 1.359375q-1.703125 0 -2.6875 -1.4375l0 1.21875zm-0.015625 -4.90625q0 1.734375 0.484375 2.515625q0.765625 1.265625 2.09375 1.265625q1.078125 0 1.859375 -0.9375q0.78125 -0.9375 0.78125 -2.78125q0 -1.890625 -0.75 -2.796875q-0.75 -0.90625 -1.828125 -0.90625q-1.0625 0 -1.859375 0.9375q-0.78125 0.9375 -0.78125 2.703125zm8.281982 0.0625q0 -2.6875 1.484375 -3.96875q1.25 -1.078125 3.046875 -1.078125q2.0 0 3.265625 1.3125q1.265625 1.296875 1.265625 3.609375q0 1.859375 -0.5625 2.9375q-0.5625 1.0625 -1.640625 1.65625q-1.0625 0.59375 -2.328125 0.59375q-2.03125 0 -3.28125 -1.296875q-1.25 -1.3125 -1.25 -3.765625zm1.6875 0q0 1.859375 0.796875 2.796875q0.8125 0.921875 2.046875 0.921875q1.21875 0 2.03125 -0.921875q0.8125 -0.9375 0.8125 -2.84375q0 -1.796875 -0.8125 -2.71875q-0.8125 -0.921875 -2.03125 -0.921875q-1.234375 0 -2.046875 0.921875q-0.796875 0.90625 -0.796875 2.765625zm8.203827 4.84375l3.53125 -5.03125l-3.265625 -4.640625l2.046875 0l1.484375 2.265625q0.421875 0.640625 0.671875 1.078125q0.40625 -0.59375 0.734375 -1.0625l1.640625 -2.28125l1.953125 0l-3.34375 4.546875l3.59375 5.125l-2.015625 0l-1.984375 -3.0l-0.515625 -0.8125l-2.546875 3.8125l-1.984375 0z" fill-rule="nonzero"/><path fill="#000000" d="m371.1765 320.6752l0 1.578125l-8.828125 0q-0.015625 -0.59375 0.1875 -1.140625q0.34375 -0.90625 1.078125 -1.78125q0.75 -0.875 2.15625 -2.015625q2.171875 -1.78125 2.9375 -2.828125q0.765625 -1.046875 0.765625 -1.96875q0 -0.984375 -0.703125 -1.640625q-0.6875 -0.671875 -1.8125 -0.671875q-1.1875 0 -1.90625 0.71875q-0.703125 0.703125 -0.703125 1.953125l-1.6875 -0.171875q0.171875 -1.890625 1.296875 -2.875q1.140625 -0.984375 3.03125 -0.984375q1.921875 0 3.046875 1.0625q1.125 1.0625 1.125 2.640625q0 0.796875 -0.328125 1.578125q-0.328125 0.78125 -1.09375 1.640625q-0.75 0.84375 -2.53125 2.34375q-1.46875 1.234375 -1.890625 1.6875q-0.421875 0.4375 -0.6875 0.875l6.546875 0z" fill-rule="nonzero"/><path fill="#cfe2f3" d="m518.3545 346.65616l0 0c-4.4328613 0 -8.026398 -3.5935364 -8.026398 -8.026398l0 -215.88419c0 -2.1287384 0.8456116 -4.1702805 2.3508606 -5.6755295c1.505249 -1.5052414 3.546814 -2.3508759 5.675537 -2.3508759l32.104675 0c4.4328613 0 8.026367 3.593544 8.026367 8.026405l0 215.88419l0 0c0 4.4328613 -3.5935059 8.026398 -8.026367 8.026398z" fill-rule="evenodd"/><path stroke="#000000" stroke-width="2.0" stroke-linejoin="round" stroke-linecap="butt" d="m518.3545 346.65616l0 0c-4.4328613 0 -8.026398 -3.5935364 -8.026398 -8.026398l0 -215.88419c0 -2.1287384 0.8456116 -4.1702805 2.3508606 -5.6755295c1.505249 -1.5052414 3.546814 -2.3508759 5.675537 -2.3508759l32.104675 0c4.4328613 0 8.026367 3.593544 8.026367 8.026405l0 215.88419l0 0c0 4.4328613 -3.5935059 8.026398 -8.026367 8.026398z" fill-rule="evenodd"/><path fill="#000000" d="m541.32684 279.92224l-11.78125 0l0 4.40625l-1.578125 0l0 -10.578125l1.578125 0l0 4.40625l11.78125 0l0 1.765625zm0 -7.9115906l-13.359375 0l0 -1.78125l11.78125 0l0 -6.5625l1.578125 0l0 8.34375zm-4.015625 -9.610107l-1.640625 0l0 -5.03125l1.640625 0l0 5.03125zm-9.34375 -15.822052l0 -1.765625l7.71875 0q2.015625 0 3.203125 0.453125q1.1875 0.453125 1.9375 1.640625q0.734375 1.1875 0.734375 3.125q0 1.875 -0.640625 3.078125q-0.65625 1.1875 -1.875 1.703125q-1.234375 0.5 -3.359375 0.5l-7.71875 0l0 -1.765625l7.71875 0q1.734375 0 2.5625 -0.3125q0.8125 -0.328125 1.265625 -1.109375q0.453125 -0.796875 0.453125 -1.9375q0 -1.953125 -0.890625 -2.78125q-0.890625 -0.828125 -3.390625 -0.828125l-7.71875 0zm13.359375 -4.629196l-13.359375 0l0 -1.78125l11.78125 0l0 -6.5625l1.578125 0l0 8.34375zm0 -15.0381775l-13.359375 0l0 -9.015625l1.578125 0l0 7.25l4.140625 0l0 -6.265625l1.578125 0l0 6.265625l6.0625 0l0 1.765625zm-1.1875 -17.411606q0.765625 0.921875 1.09375 1.765625q0.3125 0.828125 0.3125 1.796875q0 1.59375 -0.78125 2.453125q-0.78125 0.859375 -1.984375 0.859375q-0.71875 0 -1.296875 -0.328125q-0.59375 -0.328125 -0.9375 -0.84375q-0.359375 -0.53125 -0.546875 -1.1875q-0.125 -0.46875 -0.25 -1.453125q-0.234375 -1.984375 -0.5625 -2.921875q-0.34375 -0.015625 -0.421875 -0.015625q-1.0 0 -1.421875 0.46875q-0.546875 0.625 -0.546875 1.875q0 1.15625 0.40625 1.703125q0.40625 0.546875 1.421875 0.8125l-0.21875 1.609375q-1.015625 -0.21875 -1.640625 -0.71875q-0.640625 -0.5 -0.984375 -1.453125q-0.34375 -0.953125 -0.34375 -2.1875q0 -1.25 0.296875 -2.015625q0.28125 -0.78125 0.734375 -1.140625q0.4375 -0.375 1.109375 -0.515625q0.421875 -0.078125 1.515625 -0.078125l2.1875 0q2.28125 0 2.890625 -0.109375q0.59375 -0.109375 1.15625 -0.40625l0 1.703125q-0.515625 0.265625 -1.1875 0.328125zm-3.671875 0.140625q0.375 0.890625 0.625 2.671875q0.140625 1.015625 0.328125 1.4375q0.1875 0.421875 0.53125 0.65625q0.34375 0.21875 0.78125 0.21875q0.65625 0 1.09375 -0.5q0.4375 -0.5 0.4375 -1.453125q0 -0.9375 -0.40625 -1.671875q-0.421875 -0.75 -1.140625 -1.09375q-0.5625 -0.265625 -1.640625 -0.265625l-0.609375 0zm4.859375 -5.703842l0 1.515625l-13.359375 0l0 -1.640625l4.765625 0q-1.296875 -1.046875 -1.296875 -2.65625q0 -0.890625 0.359375 -1.6875q0.359375 -0.796875 1.015625 -1.3125q0.640625 -0.515625 1.5625 -0.796875q0.921875 -0.296875 1.96875 -0.296875q2.484375 0 3.84375 1.234375q1.359375 1.21875 1.359375 2.953125q0 1.703125 -1.4375 2.6875l1.21875 0zm-4.90625 0.015625q1.734375 0 2.515625 -0.484375q1.265625 -0.765625 1.265625 -2.09375q0 -1.078125 -0.9375 -1.859375q-0.9375 -0.78125 -2.78125 -0.78125q-1.890625 0 -2.796875 0.75q-0.90625 0.75 -0.90625 1.828125q0 1.0625 0.9375 1.859375q0.9375 0.78125 2.703125 0.78125zm4.90625 -8.875717l-9.671875 0l0 -1.46875l1.46875 0q-1.03125 -0.5625 -1.359375 -1.03125q-0.328125 -0.484375 -0.328125 -1.0625q0 -0.828125 0.53125 -1.6875l1.515625 0.5625q-0.359375 0.609375 -0.359375 1.203125q0 0.546875 0.328125 0.96875q0.328125 0.421875 0.890625 0.609375q0.875 0.28125 1.921875 0.28125l5.0625 0l0 1.625zm-11.46875 -6.228302l-1.890625 0l0 -1.640625l1.890625 0l0 1.640625zm11.46875 0l-9.671875 0l0 -1.640625l9.671875 0l0 1.640625zm-3.546875 -10.457321l0.21875 -1.609375q1.65625 0.265625 2.609375 1.359375q0.9375 1.078125 0.9375 2.671875q0 1.984375 -1.296875 3.1875q-1.296875 1.203125 -3.71875 1.203125q-1.578125 0 -2.75 -0.515625q-1.171875 -0.515625 -1.75 -1.578125q-0.59375 -1.0625 -0.59375 -2.3125q0 -1.578125 0.796875 -2.578125q0.796875 -1.0 2.265625 -1.28125l0.234375 1.59375q-0.96875 0.234375 -1.453125 0.8125q-0.5 0.578125 -0.5 1.390625q0 1.234375 0.890625 2.015625q0.890625 0.78125 2.8125 0.78125q1.953125 0 2.84375 -0.75q0.875 -0.75 0.875 -1.953125q0 -0.96875 -0.59375 -1.609375q-0.59375 -0.65625 -1.828125 -0.828125z" fill-rule="nonzero"/><path fill="#000000" fill-opacity="0.0" d="m628.3228 282.5538l130.45673 0l0 45.039368l-130.45673 0z" fill-rule="evenodd"/><path stroke="#000000" stroke-width="2.0" stroke-linejoin="round" stroke-linecap="butt" d="m628.3228 282.5538l130.45673 0l0 45.039368l-130.45673 0z" fill-rule="evenodd"/><path fill="#000000" d="m674.02856 311.9935l0 -13.359375l1.765625 0l0 13.359375l-1.765625 0zm4.8082886 0l0 -13.359375l5.015625 0q1.53125 0 2.453125 0.40625q0.921875 0.40625 1.4375 1.25q0.53125 0.84375 0.53125 1.765625q0 0.859375 -0.46875 1.625q-0.453125 0.75 -1.390625 1.203125q1.203125 0.359375 1.859375 1.21875q0.65625 0.859375 0.65625 2.015625q0 0.9375 -0.40625 1.75q-0.390625 0.796875 -0.984375 1.234375q-0.578125 0.4375 -1.453125 0.671875q-0.875 0.21875 -2.15625 0.21875l-5.09375 0zm1.78125 -7.75l2.875 0q1.1875 0 1.6875 -0.140625q0.671875 -0.203125 1.015625 -0.671875q0.34375 -0.46875 0.34375 -1.171875q0 -0.65625 -0.328125 -1.15625q-0.3125 -0.515625 -0.90625 -0.703125q-0.59375 -0.1875 -2.03125 -0.1875l-2.65625 0l0 4.03125zm0 6.171875l3.3125 0q0.859375 0 1.203125 -0.0625q0.609375 -0.109375 1.015625 -0.359375q0.421875 -0.265625 0.6875 -0.75q0.265625 -0.484375 0.265625 -1.125q0 -0.75 -0.390625 -1.296875q-0.375 -0.546875 -1.0625 -0.765625q-0.671875 -0.234375 -1.953125 -0.234375l-3.078125 0l0 4.59375zm10.7716675 1.578125l0 -13.359375l9.65625 0l0 1.578125l-7.875 0l0 4.09375l7.375 0l0 1.5625l-7.375 0l0 4.546875l8.1875 0l0 1.578125l-9.96875 0zm11.0529785 0l5.171875 -6.953125l-4.5625 -6.40625l2.109375 0l2.421875 3.4375q0.75 1.0625 1.078125 1.625q0.4375 -0.71875 1.046875 -1.515625l2.6875 -3.546875l1.921875 0l-4.6875 6.296875l5.0625 7.0625l-2.1875 0l-3.359375 -4.765625q-0.28125 -0.40625 -0.59375 -0.890625q-0.4375 0.734375 -0.625 1.0l-3.359375 4.65625l-2.125 0z" fill-rule="nonzero"/><path fill="#000000" fill-opacity="0.0" d="m628.3228 305.0735l-69.51178 -0.03149414" fill-rule="evenodd"/><path stroke="#000000" stroke-width="2.0" stroke-linejoin="round" stroke-linecap="butt" d="m628.3228 305.0735l-57.51178 -0.026062012" fill-rule="evenodd"/><path fill="#000000" stroke="#000000" stroke-width="2.0" stroke-linecap="butt" d="m570.8125 301.74396l-9.077698 3.299347l9.074707 3.3075867z" fill-rule="evenodd"/><path fill="#000000" fill-opacity="0.0" d="m331.0691 153.27821l-60.566925 0" fill-rule="evenodd"/><path stroke="#000000" stroke-width="2.0" stroke-linejoin="round" stroke-linecap="butt" d="m319.0691 153.27821l-48.566925 0" fill-rule="evenodd"/><path fill="#000000" stroke="#000000" stroke-width="2.0" stroke-linecap="butt" d="m319.0691 156.58168l9.076202 -3.3034668l-9.076202 -3.3034668z" fill-rule="evenodd"/><path fill="#000000" fill-opacity="0.0" d="m270.41946 229.53018l61.165344 -0.724411" fill-rule="evenodd"/><path stroke="#000000" stroke-width="2.0" stroke-linejoin="round" stroke-linecap="butt" d="m270.41946 229.53018l49.1662 -0.5823059" fill-rule="evenodd"/><path fill="#000000" stroke="#000000" stroke-width="2.0" stroke-linecap="butt" d="m319.6248 232.25111l9.036438 -3.4107208l-9.114685 -3.1957397z" fill-rule="evenodd"/><path fill="#000000" fill-opacity="0.0" d="m268.59842 303.6483l62.456696 0.6929321" fill-rule="evenodd"/><path stroke="#000000" stroke-width="2.0" stroke-linejoin="round" stroke-linecap="butt" d="m268.59842 303.6483l50.457428 0.55981445" fill-rule="evenodd"/><path fill="#000000" stroke="#000000" stroke-width="2.0" stroke-linecap="butt" d="m319.0192 307.51135l9.112305 -3.2025757l-9.039001 -3.4039612z" fill-rule="evenodd"/><path fill="#000000" fill-opacity="0.0" d="m441.96585 152.16011l-38.173218 0.3464508" fill-rule="evenodd"/><path stroke="#000000" stroke-width="2.0" stroke-linejoin="round" stroke-linecap="butt" d="m429.96637 152.26901l-26.173706 0.23754883" fill-rule="evenodd"/><path fill="#000000" stroke="#000000" stroke-width="2.0" stroke-linecap="butt" d="m429.99637 155.57234l9.045837 -3.3856964l-9.105804 -3.2209625z" fill-rule="evenodd"/><path fill="#000000" fill-opacity="0.0" d="m404.11047 228.80577l38.204712 0.31495667" fill-rule="evenodd"/><path stroke="#000000" stroke-width="2.0" stroke-linejoin="round" stroke-linecap="butt" d="m404.11044 228.80577l26.20514 0.2160492" fill-rule="evenodd"/><path fill="#000000" stroke="#000000" stroke-width="2.0" stroke-linecap="butt" d="m430.28833 232.32516l9.103119 -3.228531l-9.048645 -3.3781738z" fill-rule="evenodd"/><path fill="#000000" fill-opacity="0.0" d="m403.1942 305.10498l38.204712 -0.06298828" fill-rule="evenodd"/><path stroke="#000000" stroke-width="2.0" stroke-linejoin="round" stroke-linecap="butt" d="m403.1942 305.10498l26.204742 -0.04321289" fill-rule="evenodd"/><path fill="#000000" stroke="#000000" stroke-width="2.0" stroke-linecap="butt" d="m429.40442 308.36523l9.07074 -3.3184204l-9.0816345 -3.2884827z" fill-rule="evenodd"/><path fill="#000000" fill-opacity="0.0" d="m216.99475 338.33597l0 -211.14963l38.771652 0l0 211.14963z" fill-rule="evenodd"/><path fill="#000000" d="m237.66725 322.58926l-0.125 -1.4375q0.859375 -0.09375 1.421875 -0.46875q0.546875 -0.375 0.890625 -1.15625q0.328125 -0.78125 0.328125 -1.75q0 -0.875 -0.25 -1.53125q-0.265625 -0.671875 -0.703125 -0.984375q-0.453125 -0.328125 -0.984375 -0.328125q-0.546875 0 -0.9375 0.3125q-0.40625 0.3125 -0.6875 1.03125q-0.171875 0.453125 -0.546875 2.03125q-0.390625 1.578125 -0.71875 2.21875q-0.4375 0.8125 -1.0625 1.21875q-0.640625 0.40625 -1.4375 0.40625q-0.859375 0 -1.609375 -0.484375q-0.765625 -0.5 -1.15625 -1.4375q-0.390625 -0.953125 -0.390625 -2.109375q0 -1.28125 0.421875 -2.25q0.40625 -0.96875 1.203125 -1.484375q0.796875 -0.53125 1.796875 -0.578125l0.109375 1.453125q-1.078125 0.125 -1.625 0.796875q-0.5625 0.671875 -0.5625 2.0q0 1.375 0.5 2.0q0.5 0.625 1.21875 0.625q0.609375 0 1.015625 -0.4375q0.390625 -0.4375 0.8125 -2.28125q0.421875 -1.859375 0.734375 -2.546875q0.453125 -1.0 1.171875 -1.46875q0.703125 -0.484375 1.625 -0.484375q0.90625 0 1.71875 0.53125q0.8125 0.515625 1.265625 1.5q0.453125 0.984375 0.453125 2.203125q0 1.5625 -0.453125 2.609375q-0.46875 1.046875 -1.375 1.65625q-0.90625 0.59375 -2.0625 0.625zm-0.46875 -10.484375q-2.296875 0 -3.40625 -1.28125q-0.921875 -1.078125 -0.921875 -2.609375q0 -1.71875 1.125 -2.796875q1.109375 -1.09375 3.09375 -1.09375q1.59375 0 2.515625 0.484375q0.921875 0.484375 1.4375 1.40625q0.5 0.90625 0.5 2.0q0 1.734375 -1.109375 2.8125q-1.125 1.078125 -3.234375 1.078125zm0 -1.453125q1.59375 0 2.390625 -0.6875q0.796875 -0.703125 0.796875 -1.75q0 -1.046875 -0.796875 -1.734375q-0.796875 -0.703125 -2.4375 -0.703125q-1.53125 0 -2.328125 0.703125q-0.796875 0.6875 -0.796875 1.734375q0 1.046875 0.796875 1.75q0.78125 0.6875 2.375 0.6875zm0.140625 -16.320312l0.375 -1.515625q1.875 0.46875 2.859375 1.71875q0.984375 1.234375 0.984375 3.015625q0 1.859375 -0.75 3.015625q-0.765625 1.15625 -2.1875 1.765625q-1.4375 0.609375 -3.078125 0.609375q-1.796875 0 -3.125 -0.6875q-1.328125 -0.6875 -2.015625 -1.9375q-0.703125 -1.265625 -0.703125 -2.78125q0 -1.71875 0.875 -2.890625q0.875 -1.171875 2.46875 -1.640625l0.34375 1.5q-1.25 0.390625 -1.8125 1.15625q-0.578125 0.75 -0.578125 1.90625q0 1.3125 0.640625 2.203125q0.625 0.890625 1.703125 1.25q1.0625 0.359375 2.1875 0.359375q1.46875 0 2.5625 -0.421875q1.078125 -0.4375 1.625 -1.328125q0.53125 -0.90625 0.53125 -1.953125q0 -1.265625 -0.734375 -2.140625q-0.734375 -0.890625 -2.171875 -1.203125zm4.015625 -7.859375l-11.453125 0l0 -5.078125q0 -1.53125 0.3125 -2.328125q0.296875 -0.796875 1.078125 -1.265625q0.78125 -0.484375 1.734375 -0.484375q1.21875 0 2.0625 0.796875q0.828125 0.78125 1.046875 2.4375q0.296875 -0.609375 0.578125 -0.921875q0.609375 -0.65625 1.515625 -1.25l3.125 -2.0l0 1.90625l-2.390625 1.515625q-1.03125 0.671875 -1.578125 1.109375q-0.546875 0.421875 -0.765625 0.765625q-0.21875 0.328125 -0.296875 0.6875q-0.0625 0.25 -0.0625 0.84375l0 1.75l5.09375 0l0 1.515625zm-6.40625 -1.515625l0 -3.25q0 -1.046875 -0.203125 -1.625q-0.21875 -0.59375 -0.6875 -0.890625q-0.484375 -0.3125 -1.03125 -0.3125q-0.8125 0 -1.328125 0.59375q-0.53125 0.59375 -0.53125 1.859375l0 3.625l3.78125 0zm3.734375 -15.5078125l0.171875 -1.453125q1.28125 0.34375 1.984375 1.28125q0.703125 0.921875 0.703125 2.359375q0 1.828125 -1.125 2.890625q-1.125 1.0625 -3.140625 1.0625q-2.09375 0 -3.25 -1.078125q-1.15625 -1.078125 -1.15625 -2.796875q0 -1.65625 1.140625 -2.703125q1.125 -1.0625 3.171875 -1.0625q0.125 0 0.375 0l0 6.1875q1.375 -0.078125 2.109375 -0.765625q0.71875 -0.703125 0.71875 -1.734375q0 -0.78125 -0.40625 -1.328125q-0.40625 -0.546875 -1.296875 -0.859375zm-2.28125 4.609375l0 -4.625q-1.046875 0.09375 -1.5625 0.53125q-0.8125 0.671875 -0.8125 1.734375q0 0.96875 0.65625 1.640625q0.640625 0.65625 1.71875 0.71875zm8.140625 -13.1171875l-4.078125 0q0.46875 0.328125 0.78125 0.921875q0.296875 0.578125 0.296875 1.25q0 1.46875 -1.171875 2.546875q-1.1875 1.0625 -3.25 1.0625q-1.25 0 -2.234375 -0.4375q-1.0 -0.4375 -1.5 -1.25q-0.515625 -0.828125 -0.515625 -1.8125q0 -1.546875 1.296875 -2.421875l-1.109375 0l0 -1.265625l11.484375 0l0 1.40625zm-7.359375 4.328125q1.59375 0 2.40625 -0.671875q0.796875 -0.671875 0.796875 -1.609375q0 -0.890625 -0.765625 -1.53125q-0.765625 -0.65625 -2.3125 -0.65625q-1.65625 0 -2.484375 0.6875q-0.84375 0.671875 -0.84375 1.59375q0 0.921875 0.78125 1.5625q0.765625 0.625 2.421875 0.625zm4.171875 -13.382797l-1.21875 0q1.40625 0.96875 1.40625 2.640625q0 0.734375 -0.28125 1.375q-0.28125 0.62498474 -0.703125 0.93748474q-0.4375 0.3125 -1.046875 0.4375q-0.421875 0.078125 -1.3125 0.078125l-5.140625 0l0 -1.4062347l4.59375 0q1.109375 0 1.484375 -0.078125q0.5625 -0.140625 0.875 -0.5625q0.3125 -0.4375 0.3125 -1.0625q0 -0.640625 -0.3125 -1.1875q-0.328125 -0.5625 -0.890625 -0.78125q-0.5625 -0.234375 -1.625 -0.234375l-4.4375 0l0 -1.40625l8.296875 0l0 1.25zm-2.671875 -9.1328125l0.171875 -1.453125q1.28125 0.34375 1.984375 1.28125q0.703125 0.921875 0.703125 2.359375q0 1.828125 -1.125 2.890625q-1.125 1.0625 -3.140625 1.0625q-2.09375 0 -3.25 -1.078125q-1.15625 -1.078125 -1.15625 -2.796875q0 -1.65625 1.140625 -2.703125q1.125 -1.0625 3.171875 -1.0625q0.125 0 0.375 0l0 6.1875q1.375 -0.078125 2.109375 -0.765625q0.71875 -0.703125 0.71875 -1.734375q0 -0.78125 -0.40625 -1.328125q-0.40625 -0.546875 -1.296875 -0.859375zm-2.28125 4.609375l0 -4.625q-1.046875 0.09375 -1.5625 0.53125q-0.8125 0.671875 -0.8125 1.734375q0 0.96875 0.65625 1.640625q0.640625 0.65625 1.71875 0.71875zm2.46875 -7.2734375l-0.21875 -1.390625q0.84375 -0.109375 1.296875 -0.640625q0.4375 -0.546875 0.4375 -1.5q0 -0.96875 -0.390625 -1.4375q-0.40625 -0.46875 -0.9375 -0.46875q-0.46875 0 -0.75 0.40625q-0.1875 0.296875 -0.46875 1.4375q-0.390625 1.546875 -0.671875 2.15625q-0.296875 0.59375 -0.796875 0.90625q-0.5 0.296875 -1.109375 0.296875q-0.5625 0 -1.03125 -0.25q-0.46875 -0.25 -0.78125 -0.6875q-0.25 -0.328125 -0.40625 -0.890625q-0.171875 -0.578125 -0.171875 -1.21875q0 -0.984375 0.28125 -1.71875q0.28125 -0.734375 0.765625 -1.078125q0.46875 -0.359375 1.28125 -0.5l0.1875 1.375q-0.640625 0.09375 -1.0 0.546875q-0.359375 0.453125 -0.359375 1.265625q0 0.96875 0.328125 1.390625q0.3125 0.40625 0.734375 0.40625q0.28125 0 0.5 -0.171875q0.21875 -0.171875 0.375 -0.53125q0.078125 -0.21875 0.359375 -1.25q0.390625 -1.484375 0.65625 -2.078125q0.25 -0.59375 0.734375 -0.921875q0.484375 -0.34375 1.203125 -0.34375q0.703125 0 1.328125 0.421875q0.609375 0.40625 0.953125 1.1875q0.34375 0.765625 0.34375 1.734375q0 1.625 -0.671875 2.46875q-0.671875 0.84375 -2.0 1.078125zm1.21875 -11.625l1.25 -0.203125q0.125 0.59375 0.125 1.0625q0 0.765625 -0.234375 1.1875q-0.25 0.421875 -0.640625 0.59375q-0.40625 0.171875 -1.671875 0.171875l-4.765625 0l0 1.03125l-1.09375 0l0 -1.03125l-2.0625 0l-0.84375 -1.40625l2.90625 0l0 -1.40625l1.09375 0l0 1.40625l4.84375 0q0.609375 0 0.78125 -0.0625q0.171875 -0.078125 0.28125 -0.25q0.09375 -0.171875 0.09375 -0.484375q0 -0.234375 -0.0625 -0.609375zm-1.40625 -7.0546875l0.171875 -1.453125q1.28125 0.34375 1.984375 1.28125q0.703125 0.921875 0.703125 2.359375q0 1.828125 -1.125 2.890625q-1.125 1.0625 -3.140625 1.0625q-2.09375 0 -3.25 -1.078125q-1.15625 -1.078125 -1.15625 -2.796875q0 -1.65625 1.140625 -2.703125q1.125 -1.0625 3.171875 -1.0625q0.125 0 0.375 0l0 6.1875q1.375 -0.078125 2.109375 -0.765625q0.71875 -0.703125 0.71875 -1.734375q0 -0.78125 -0.40625 -1.328125q-0.40625 -0.546875 -1.296875 -0.859375zm-2.28125 4.609375l0 -4.625q-1.046875 0.09375 -1.5625 0.53125q-0.8125 0.671875 -0.8125 1.734375q0 0.96875 0.65625 1.640625q0.640625 0.65625 1.71875 0.71875zm4.953125 -7.8203125l-8.296875 0l0 -1.265625l1.25 0q-0.875 -0.484375 -1.15625 -0.890625q-0.28125 -0.40625 -0.28125 -0.90625q0 -0.703125 0.453125 -1.4375l1.296875 0.484375q-0.296875 0.515625 -0.296875 1.03125q0 0.453125 0.28125 0.828125q0.265625 0.359375 0.765625 0.515625q0.75 0.234375 1.640625 0.234375l4.34375 0l0 1.40625zm-2.484375 -4.78125l-0.21875 -1.390625q0.84375 -0.109375 1.296875 -0.640625q0.4375 -0.546875 0.4375 -1.5q0 -0.96875 -0.390625 -1.4375q-0.40625 -0.46875 -0.9375 -0.46875q-0.46875 0 -0.75 0.40625q-0.1875 0.296875 -0.46875 1.4375q-0.390625 1.546875 -0.671875 2.15625q-0.296875 0.59375 -0.796875 0.90625q-0.5 0.296875 -1.109375 0.296875q-0.5625 0 -1.03125 -0.25q-0.46875 -0.25 -0.78125 -0.6875q-0.25 -0.328125 -0.40625 -0.890625q-0.171875 -0.578125 -0.171875 -1.21875q0 -0.984375 0.28125 -1.71875q0.28125 -0.734375 0.765625 -1.078125q0.46875 -0.359375 1.28125 -0.5l0.1875 1.375q-0.640625 0.09375 -1.0 0.546875q-0.359375 0.453125 -0.359375 1.265625q0 0.96875 0.328125 1.390625q0.3125 0.40625 0.734375 0.40625q0.28125 0 0.5 -0.171875q0.21875 -0.171875 0.375 -0.53125q0.078125 -0.21875 0.359375 -1.25q0.390625 -1.484375 0.65625 -2.078125q0.25 -0.59375 0.734375 -0.921875q0.484375 -0.34375 1.203125 -0.34375q0.703125 0 1.328125 0.421875q0.609375 0.40625 0.953125 1.1875q0.34375 0.765625 0.34375 1.734375q0 1.625 -0.671875 2.46875q-0.671875 0.84375 -2.0 1.078125zm2.6875 -11.9453125l-11.859375 -3.328125l0 -1.125l11.859375 3.3125l0 1.140625zm-0.203125 -12.125l-11.453125 3.03125l0 -1.546875l7.5 -1.75q1.1875 -0.28125 2.34375 -0.484375q-1.828125 -0.4375 -2.109375 -0.515625l-7.734375 -2.171875l0 -1.828125l5.796875 -1.640625q2.15625 -0.625 4.046875 -0.890625q-1.078125 -0.21875 -2.484375 -0.578125l-7.359375 -1.796875l0 -1.515625l11.453125 3.140625l0 1.453125l-8.734375 2.421875q-1.09375 0.296875 -1.34375 0.359375q0.796875 0.171875 1.34375 0.328125l8.734375 2.4375l0 1.546875zm0 -12.625l-8.296875 0l0 -1.265625l1.25 0q-0.875 -0.484375 -1.15625 -0.890625q-0.28125 -0.40625 -0.28125 -0.90625q0 -0.703125 0.453125 -1.4375l1.296875 0.484375q-0.296875 0.515625 -0.296875 1.03125q0 0.453125 0.28125 0.828125q0.265625 0.359375 0.765625 0.515625q0.75 0.234375 1.640625 0.234375l4.34375 0l0 1.40625zm-9.84375 -5.34375l-1.609375 0l0 -1.40625l1.609375 0l0 1.40625zm9.84375 0l-8.296875 0l0 -1.40625l8.296875 0l0 1.40625zm-1.265625 -6.6171875l1.25 -0.203125q0.125 0.59375 0.125 1.0625q0 0.765625 -0.234375 1.1875q-0.25 0.421875 -0.640625 0.59375q-0.40625 0.171875 -1.671875 0.171875l-4.765625 0l0 1.03125l-1.09375 0l0 -1.03125l-2.0625 0l-0.84375 -1.40625l2.90625 0l0 -1.40625l1.09375 0l0 1.40625l4.84375 0q0.609375 0 0.78125 -0.0625q0.171875 -0.078125 0.28125 -0.25q0.09375 -0.171875 0.09375 -0.484375q0 -0.234375 -0.0625 -0.609375zm-1.40625 -7.0546875l0.171875 -1.453125q1.28125 0.34375 1.984375 1.28125q0.703125 0.921875 0.703125 2.359375q0 1.828125 -1.125 2.890625q-1.125 1.0625 -3.140625 1.0625q-2.09375 0 -3.25 -1.078125q-1.15625 -1.078125 -1.15625 -2.796875q0 -1.65625 1.140625 -2.703125q1.125 -1.0625 3.171875 -1.0625q0.125 0 0.375 0l0 6.1875q1.375 -0.078125 2.109375 -0.765625q0.71875 -0.703125 0.71875 -1.734375q0 -0.78125 -0.40625 -1.328125q-0.40625 -0.546875 -1.296875 -0.859375zm-2.28125 4.609375l0 -4.625q-1.046875 0.09375 -1.5625 0.53125q-0.8125 0.671875 -0.8125 1.734375q0 0.96875 0.65625 1.640625q0.640625 0.65625 1.71875 0.71875zm4.953125 -7.8203125l-8.296875 0l0 -1.265625l1.25 0q-0.875 -0.484375 -1.15625 -0.890625q-0.28125 -0.40625 -0.28125 -0.90625q0 -0.703125 0.453125 -1.4375l1.296875 0.484375q-0.296875 0.515625 -0.296875 1.03125q0 0.453125 0.28125 0.828125q0.265625 0.359375 0.765625 0.515625q0.75 0.234375 1.640625 0.234375l4.34375 0l0 1.40625zm-2.484375 -4.78125l-0.21875 -1.390625q0.84375 -0.109375 1.296875 -0.640625q0.4375 -0.546875 0.4375 -1.5q0 -0.96875 -0.390625 -1.4375q-0.40625 -0.46875 -0.9375 -0.46875q-0.46875 0 -0.75 0.40625q-0.1875 0.296875 -0.46875 1.4375q-0.390625 1.546875 -0.671875 2.15625q-0.296875 0.59375 -0.796875 0.90625q-0.5 0.296875 -1.109375 0.296875q-0.5625 0 -1.03125 -0.25q-0.46875 -0.25 -0.78125 -0.6875q-0.25 -0.328125 -0.40625 -0.890625q-0.171875 -0.578125 -0.171875 -1.21875q0 -0.984375 0.28125 -1.71875q0.28125 -0.734375 0.765625 -1.078125q0.46875 -0.359375 1.28125 -0.5l0.1875 1.375q-0.640625 0.09375 -1.0 0.546875q-0.359375 0.453125 -0.359375 1.265625q0 0.96875 0.328125 1.390625q0.3125 0.40625 0.734375 0.40625q0.28125 0 0.5 -0.171875q0.21875 -0.171875 0.375 -0.53125q0.078125 -0.21875 0.359375 -1.25q0.390625 -1.484375 0.65625 -2.078125q0.25 -0.59375 0.734375 -0.921875q0.484375 -0.34375 1.203125 -0.34375q0.703125 0 1.328125 0.421875q0.609375 0.40625 0.953125 1.1875q0.34375 0.765625 0.34375 1.734375q0 1.625 -0.671875 2.46875q-0.671875 0.84375 -2.0 1.078125z" fill-rule="nonzero"/><path fill="#fff2cc" d="m758.77954 127.18635l-130.45673 0l0 59.30709l130.45673 0z" fill-rule="evenodd"/><path fill="#000000" d="m662.79895 152.75989l0 -13.359375l2.65625 0l3.15625 9.453125q0.4375 1.328125 0.640625 1.984375q0.234375 -0.734375 0.703125 -2.140625l3.203125 -9.296875l2.375 0l0 13.359375l-1.703125 0l0 -11.171875l-3.875 11.171875l-1.59375 0l-3.859375 -11.375l0 11.375l-1.703125 0zm21.697021 -1.1875q-0.921875 0.765625 -1.765625 1.09375q-0.828125 0.3125 -1.796875 0.3125q-1.59375 0 -2.453125 -0.78125q-0.859375 -0.78125 -0.859375 -1.984375q0 -0.71875 0.328125 -1.296875q0.328125 -0.59375 0.84375 -0.9375q0.53125 -0.359375 1.1875 -0.546875q0.46875 -0.125 1.453125 -0.25q1.984375 -0.234375 2.921875 -0.5625q0.015625 -0.34375 0.015625 -0.421875q0 -1.0 -0.46875 -1.421875q-0.625 -0.546875 -1.875 -0.546875q-1.15625 0 -1.703125 0.40625q-0.546875 0.40625 -0.8125 1.421875l-1.609375 -0.21875q0.21875 -1.015625 0.71875 -1.640625q0.5 -0.640625 1.453125 -0.984375q0.953125 -0.34375 2.1875 -0.34375q1.25 0 2.015625 0.296875q0.78125 0.28125 1.140625 0.734375q0.375 0.4375 0.515625 1.109375q0.078125 0.421875 0.078125 1.515625l0 2.1875q0 2.28125 0.109375 2.890625q0.109375 0.59375 0.40625 1.15625l-1.703125 0q-0.265625 -0.515625 -0.328125 -1.1875zm-0.140625 -3.671875q-0.890625 0.375 -2.671875 0.625q-1.015625 0.140625 -1.4375 0.328125q-0.421875 0.1875 -0.65625 0.53125q-0.21875 0.34375 -0.21875 0.78125q0 0.65625 0.5 1.09375q0.5 0.4375 1.453125 0.4375q0.9375 0 1.671875 -0.40625q0.75 -0.421875 1.09375 -1.140625q0.265625 -0.5625 0.265625 -1.640625l0 -0.609375zm4.2038574 -6.609375l0 -1.890625l1.640625 0l0 1.890625l-1.640625 0zm0 11.46875l0 -9.671875l1.640625 0l0 9.671875l-1.640625 0zm4.0979614 0l0 -13.359375l1.640625 0l0 13.359375l-1.640625 0zm5.6917114 0l-1.515625 0l0 -13.359375l1.640625 0l0 4.765625q1.046875 -1.296875 2.65625 -1.296875q0.890625 0 1.6875 0.359375q0.796875 0.359375 1.3125 1.015625q0.515625 0.640625 0.796875 1.5625q0.296875 0.921875 0.296875 1.96875q0 2.484375 -1.234375 3.84375q-1.21875 1.359375 -2.953125 1.359375q-1.703125 0 -2.6875 -1.4375l0 1.21875zm-0.015625 -4.90625q0 1.734375 0.484375 2.515625q0.765625 1.265625 2.09375 1.265625q1.078125 0 1.859375 -0.9375q0.78125 -0.9375 0.78125 -2.78125q0 -1.890625 -0.75 -2.796875q-0.75 -0.90625 -1.828125 -0.90625q-1.0625 0 -1.859375 0.9375q-0.78125 0.9375 -0.78125 2.703125zm8.281921 0.0625q0 -2.6875 1.484375 -3.96875q1.25 -1.078125 3.046875 -1.078125q2.0 0 3.265625 1.3125q1.265625 1.296875 1.265625 3.609375q0 1.859375 -0.5625 2.9375q-0.5625 1.0625 -1.640625 1.65625q-1.0625 0.59375 -2.328125 0.59375q-2.03125 0 -3.28125 -1.296875q-1.25 -1.3125 -1.25 -3.765625zm1.6875 0q0 1.859375 0.796875 2.796875q0.8125 0.921875 2.046875 0.921875q1.21875 0 2.03125 -0.921875q0.8125 -0.9375 0.8125 -2.84375q0 -1.796875 -0.8125 -2.71875q-0.8125 -0.921875 -2.03125 -0.921875q-1.234375 0 -2.046875 0.921875q-0.796875 0.90625 -0.796875 2.765625zm8.203857 4.84375l3.53125 -5.03125l-3.265625 -4.640625l2.046875 0l1.484375 2.265625q0.421875 0.640625 0.671875 1.078125q0.40625 -0.59375 0.734375 -1.0625l1.640625 -2.28125l1.953125 0l-3.34375 4.546875l3.59375 5.125l-2.015625 0l-1.984375 -3.0l-0.515625 -0.8125l-2.546875 3.8125l-1.984375 0z" fill-rule="nonzero"/><path fill="#000000" d="m640.99506 170.46301l1.65625 -0.140625q0.125 1.0 0.546875 1.640625q0.4375 0.640625 1.34375 1.046875q0.921875 0.390625 2.0625 0.390625q1.0 0 1.78125 -0.296875q0.78125 -0.296875 1.15625 -0.8125q0.375 -0.53125 0.375 -1.15625q0 -0.625 -0.375 -1.09375q-0.359375 -0.46875 -1.1875 -0.796875q-0.546875 -0.203125 -2.390625 -0.640625q-1.828125 -0.453125 -2.5625 -0.84375q-0.96875 -0.5 -1.4375 -1.234375q-0.46875 -0.75 -0.46875 -1.671875q0 -1.0 0.578125 -1.875q0.578125 -0.890625 1.671875 -1.34375q1.109375 -0.453125 2.453125 -0.453125q1.484375 0 2.609375 0.484375q1.140625 0.46875 1.75 1.40625q0.609375 0.921875 0.65625 2.09375l-1.6875 0.125q-0.140625 -1.265625 -0.9375 -1.90625q-0.78125 -0.65625 -2.3125 -0.65625q-1.609375 0 -2.34375 0.59375q-0.734375 0.59375 -0.734375 1.421875q0 0.71875 0.53125 1.171875q0.5 0.46875 2.65625 0.96875q2.15625 0.484375 2.953125 0.84375q1.171875 0.53125 1.71875 1.359375q0.5625 0.828125 0.5625 1.90625q0 1.0625 -0.609375 2.015625q-0.609375 0.9375 -1.75 1.46875q-1.140625 0.515625 -2.578125 0.515625q-1.8125 0 -3.046875 -0.53125q-1.21875 -0.53125 -1.921875 -1.59375q-0.6875 -1.0625 -0.71875 -2.40625zm12.8342285 4.296875l0 -13.359375l1.640625 0l0 4.796875q1.140625 -1.328125 2.890625 -1.328125q1.078125 0 1.859375 0.421875q0.796875 0.421875 1.140625 1.171875q0.34375 0.75 0.34375 2.171875l0 6.125l-1.640625 0l0 -6.125q0 -1.234375 -0.53125 -1.796875q-0.53125 -0.5625 -1.515625 -0.5625q-0.71875 0 -1.359375 0.390625q-0.640625 0.375 -0.921875 1.015625q-0.265625 0.640625 -0.265625 1.78125l0 5.296875l-1.640625 0zm16.688171 -1.1875q-0.921875 0.765625 -1.765625 1.09375q-0.828125 0.3125 -1.796875 0.3125q-1.59375 0 -2.453125 -0.78125q-0.859375 -0.78125 -0.859375 -1.984375q0 -0.71875 0.328125 -1.296875q0.328125 -0.59375 0.84375 -0.9375q0.53125 -0.359375 1.1875 -0.546875q0.46875 -0.125 1.453125 -0.25q1.984375 -0.234375 2.921875 -0.5625q0.015625 -0.34375 0.015625 -0.421875q0 -1.0 -0.46875 -1.421875q-0.625 -0.546875 -1.875 -0.546875q-1.15625 0 -1.703125 0.40625q-0.546875 0.40625 -0.8125 1.421875l-1.609375 -0.21875q0.21875 -1.015625 0.71875 -1.640625q0.5 -0.640625 1.453125 -0.984375q0.953125 -0.34375 2.1875 -0.34375q1.25 0 2.015625 0.296875q0.78125 0.28125 1.140625 0.734375q0.375 0.4375 0.515625 1.109375q0.078125 0.421875 0.078125 1.515625l0 2.1875q0 2.28125 0.109375 2.890625q0.109375 0.59375 0.40625 1.15625l-1.703125 0q-0.265625 -0.515625 -0.328125 -1.1875zm-0.140625 -3.671875q-0.890625 0.375 -2.671875 0.625q-1.015625 0.140625 -1.4375 0.328125q-0.421875 0.1875 -0.65625 0.53125q-0.21875 0.34375 -0.21875 0.78125q0 0.65625 0.5 1.09375q0.5 0.4375 1.453125 0.4375q0.9375 0 1.671875 -0.40625q0.75 -0.421875 1.09375 -1.140625q0.265625 -0.5625 0.265625 -1.640625l0 -0.609375zm4.1882324 4.859375l0 -9.671875l1.46875 0l0 1.46875q0.5625 -1.03125 1.03125 -1.359375q0.484375 -0.328125 1.0625 -0.328125q0.828125 0 1.6875 0.53125l-0.5625 1.515625q-0.609375 -0.359375 -1.203125 -0.359375q-0.546875 0 -0.96875 0.328125q-0.421875 0.328125 -0.609375 0.890625q-0.28125 0.875 -0.28125 1.921875l0 5.0625l-1.625 0zm12.8533325 -3.109375l1.6875 0.203125q-0.40625 1.484375 -1.484375 2.3125q-1.078125 0.8125 -2.765625 0.8125q-2.125 0 -3.375 -1.296875q-1.234375 -1.3125 -1.234375 -3.671875q0 -2.453125 1.25 -3.796875q1.265625 -1.34375 3.265625 -1.34375q1.9375 0 3.15625 1.328125q1.234375 1.3125 1.234375 3.703125q0 0.15625 0 0.4375l-7.21875 0q0.09375 1.59375 0.90625 2.453125q0.8125 0.84375 2.015625 0.84375q0.90625 0 1.546875 -0.46875q0.640625 -0.484375 1.015625 -1.515625zm-5.390625 -2.65625l5.40625 0q-0.109375 -1.21875 -0.625 -1.828125q-0.78125 -0.953125 -2.03125 -0.953125q-1.125 0 -1.90625 0.765625q-0.765625 0.75 -0.84375 2.015625zm15.406921 5.765625l0 -1.21875q-0.90625 1.4375 -2.703125 1.4375q-1.15625 0 -2.125 -0.640625q-0.96875 -0.640625 -1.5 -1.78125q-0.53125 -1.140625 -0.53125 -2.625q0 -1.453125 0.484375 -2.625q0.484375 -1.1875 1.4375 -1.8125q0.96875 -0.625 2.171875 -0.625q0.875 0 1.546875 0.375q0.6875 0.359375 1.109375 0.953125l0 -4.796875l1.640625 0l0 13.359375l-1.53125 0zm-5.171875 -4.828125q0 1.859375 0.78125 2.78125q0.78125 0.921875 1.84375 0.921875q1.078125 0 1.828125 -0.875q0.75 -0.890625 0.75 -2.6875q0 -1.984375 -0.765625 -2.90625q-0.765625 -0.9375 -1.890625 -0.9375q-1.078125 0 -1.8125 0.890625q-0.734375 0.890625 -0.734375 2.8125zm14.621521 4.828125l0 -13.359375l2.65625 0l3.15625 9.453125q0.4375 1.328125 0.640625 1.984375q0.234375 -0.734375 0.703125 -2.140625l3.203125 -9.296875l2.375 0l0 13.359375l-1.703125 0l0 -11.171875l-3.875 11.171875l-1.59375 0l-3.859375 -11.375l0 11.375l-1.703125 0zm22.009583 -3.109375l1.6875 0.203125q-0.40625 1.484375 -1.484375 2.3125q-1.078125 0.8125 -2.765625 0.8125q-2.125 0 -3.375 -1.296875q-1.234375 -1.3125 -1.234375 -3.671875q0 -2.453125 1.25 -3.796875q1.265625 -1.34375 3.265625 -1.34375q1.9375 0 3.15625 1.328125q1.234375 1.3125 1.234375 3.703125q0 0.15625 0 0.4375l-7.21875 0q0.09375 1.59375 0.90625 2.453125q0.8125 0.84375 2.015625 0.84375q0.90625 0 1.546875 -0.46875q0.640625 -0.484375 1.015625 -1.515625zm-5.390625 -2.65625l5.40625 0q-0.109375 -1.21875 -0.625 -1.828125q-0.78125 -0.953125 -2.03125 -0.953125q-1.125 0 -1.90625 0.765625q-0.765625 0.75 -0.84375 2.015625zm9.141357 5.765625l0 -9.671875l1.46875 0l0 1.359375q0.453125 -0.71875 1.203125 -1.140625q0.765625 -0.4375 1.71875 -0.4375q1.078125 0 1.765625 0.453125q0.6875 0.4375 0.96875 1.234375q1.15625 -1.6875 2.984375 -1.6875q1.453125 0 2.21875 0.796875q0.78125 0.796875 0.78125 2.453125l0 6.640625l-1.640625 0l0 -6.09375q0 -0.984375 -0.15625 -1.40625q-0.15625 -0.4375 -0.578125 -0.703125q-0.421875 -0.265625 -0.984375 -0.265625q-1.015625 0 -1.6875 0.6875q-0.671875 0.671875 -0.671875 2.15625l0 5.625l-1.640625 0l0 -6.28125q0 -1.09375 -0.40625 -1.640625q-0.40625 -0.546875 -1.3125 -0.546875q-0.6875 0 -1.28125 0.359375q-0.59375 0.359375 -0.859375 1.0625q-0.25 0.703125 -0.25 2.03125l0 5.015625l-1.640625 0z" fill-rule="nonzero"/><path fill="#000000" fill-opacity="0.0" d="m758.7769 130.75853l-130.45673 0l0 115.055115l130.45673 0z" fill-rule="evenodd"/><path stroke="#000000" stroke-width="2.0" stroke-linejoin="round" stroke-linecap="butt" d="m758.7769 130.75853l-130.45673 0l0 115.055115l130.45673 0z" fill-rule="evenodd"/><path fill="#000000" d="m650.0461 204.23364q0 -3.328125 1.78125 -5.203125q1.78125 -1.890625 4.609375 -1.890625q1.84375 0 3.328125 0.890625q1.484375 0.875 2.265625 2.46875q0.78125 1.578125 0.78125 3.578125q0 2.03125 -0.828125 3.640625q-0.8125 1.59375 -2.3125 2.421875q-1.5 0.828125 -3.25 0.828125q-1.875 0 -3.359375 -0.90625q-1.484375 -0.921875 -2.25 -2.5q-0.765625 -1.578125 -0.765625 -3.328125zm1.8125 0.015625q0 2.421875 1.296875 3.8125q1.296875 1.390625 3.265625 1.390625q2.0 0 3.28125 -1.40625q1.28125 -1.40625 1.28125 -3.984375q0 -1.625 -0.546875 -2.84375q-0.546875 -1.21875 -1.609375 -1.875q-1.0625 -0.671875 -2.375 -0.671875q-1.890625 0 -3.25 1.296875q-1.34375 1.28125 -1.34375 4.28125zm16.636475 6.484375l0 -11.78125l-4.40625 0l0 -1.578125l10.578125 0l0 1.578125l-4.40625 0l0 11.78125l-1.765625 0zm12.835754 0l0 -13.359375l5.046875 0q1.328125 0 2.03125 0.125q0.96875 0.171875 1.640625 0.640625q0.671875 0.453125 1.078125 1.28125q0.40625 0.828125 0.40625 1.828125q0 1.703125 -1.09375 2.890625q-1.078125 1.171875 -3.921875 1.171875l-3.421875 0l0 5.421875l-1.765625 0zm1.765625 -7.0l3.453125 0q1.71875 0 2.4375 -0.640625q0.71875 -0.640625 0.71875 -1.796875q0 -0.84375 -0.421875 -1.4375q-0.421875 -0.59375 -1.125 -0.78125q-0.4375 -0.125 -1.640625 -0.125l-3.421875 0l0 4.78125zm10.4592285 7.0l0 -9.671875l1.46875 0l0 1.46875q0.5625 -1.03125 1.03125 -1.359375q0.484375 -0.328125 1.0625 -0.328125q0.828125 0 1.6875 0.53125l-0.5625 1.515625q-0.609375 -0.359375 -1.203125 -0.359375q-0.546875 0 -0.96875 0.328125q-0.421875 0.328125 -0.609375 0.890625q-0.28125 0.875 -0.28125 1.921875l0 5.0625l-1.625 0zm6.2282715 -11.46875l0 -1.890625l1.640625 0l0 1.890625l-1.640625 0zm0 11.46875l0 -9.671875l1.640625 0l0 9.671875l-1.640625 0zm6.8323364 0l-3.6875 -9.671875l1.734375 0l2.078125 5.796875q0.328125 0.9375 0.625 1.9375q0.203125 -0.765625 0.609375 -1.828125l2.140625 -5.90625l1.6875 0l-3.65625 9.671875l-1.53125 0zm12.953125 -1.1875q-0.921875 0.765625 -1.765625 1.09375q-0.828125 0.3125 -1.796875 0.3125q-1.59375 0 -2.453125 -0.78125q-0.859375 -0.78125 -0.859375 -1.984375q0 -0.71875 0.328125 -1.296875q0.328125 -0.59375 0.84375 -0.9375q0.53125 -0.359375 1.1875 -0.546875q0.46875 -0.125 1.453125 -0.25q1.984375 -0.234375 2.921875 -0.5625q0.015625 -0.34375 0.015625 -0.421875q0 -1.0 -0.46875 -1.421875q-0.625 -0.546875 -1.875 -0.546875q-1.15625 0 -1.703125 0.40625q-0.546875 0.40625 -0.8125 1.421875l-1.609375 -0.21875q0.21875 -1.015625 0.71875 -1.640625q0.5 -0.640625 1.453125 -0.984375q0.953125 -0.34375 2.1875 -0.34375q1.25 0 2.015625 0.296875q0.78125 0.28125 1.140625 0.734375q0.375 0.4375 0.515625 1.109375q0.078125 0.421875 0.078125 1.515625l0 2.1875q0 2.28125 0.109375 2.890625q0.109375 0.59375 0.40625 1.15625l-1.703125 0q-0.265625 -0.515625 -0.328125 -1.1875zm-0.140625 -3.671875q-0.890625 0.375 -2.671875 0.625q-1.015625 0.140625 -1.4375 0.328125q-0.421875 0.1875 -0.65625 0.53125q-0.21875 0.34375 -0.21875 0.78125q0 0.65625 0.5 1.09375q0.5 0.4375 1.453125 0.4375q0.9375 0 1.671875 -0.40625q0.75 -0.421875 1.09375 -1.140625q0.265625 -0.5625 0.265625 -1.640625l0 -0.609375zm7.7819824 3.390625l0.234375 1.453125q-0.6875 0.140625 -1.234375 0.140625q-0.890625 0 -1.390625 -0.28125q-0.484375 -0.28125 -0.6875 -0.734375q-0.203125 -0.46875 -0.203125 -1.9375l0 -5.578125l-1.203125 0l0 -1.265625l1.203125 0l0 -2.390625l1.625 -0.984375l0 3.375l1.65625 0l0 1.265625l-1.65625 0l0 5.671875q0 0.6875 0.078125 0.890625q0.09375 0.203125 0.28125 0.328125q0.203125 0.109375 0.578125 0.109375q0.265625 0 0.71875 -0.0625zm8.230164 -1.640625l1.6875 0.203125q-0.40625 1.484375 -1.484375 2.3125q-1.078125 0.8125 -2.765625 0.8125q-2.125 0 -3.375 -1.296875q-1.234375 -1.3125 -1.234375 -3.671875q0 -2.453125 1.25 -3.796875q1.265625 -1.34375 3.265625 -1.34375q1.9375 0 3.15625 1.328125q1.234375 1.3125 1.234375 3.703125q0 0.15625 0 0.4375l-7.21875 0q0.09375 1.59375 0.90625 2.453125q0.8125 0.84375 2.015625 0.84375q0.90625 0 1.546875 -0.46875q0.640625 -0.484375 1.015625 -1.515625zm-5.390625 -2.65625l5.40625 0q-0.109375 -1.21875 -0.625 -1.828125q-0.78125 -0.953125 -2.03125 -0.953125q-1.125 0 -1.90625 0.765625q-0.765625 0.75 -0.84375 2.015625z" fill-rule="nonzero"/><path fill="#000000" d="m667.44183 228.43677l1.65625 -0.140625q0.125 1.0 0.546875 1.640625q0.4375 0.640625 1.34375 1.046875q0.921875 0.390625 2.0625 0.390625q1.0 0 1.78125 -0.296875q0.78125 -0.296875 1.15625 -0.8125q0.375 -0.53125 0.375 -1.15625q0 -0.625 -0.375 -1.09375q-0.359375 -0.46875 -1.1875 -0.796875q-0.546875 -0.203125 -2.390625 -0.640625q-1.828125 -0.453125 -2.5625 -0.84375q-0.96875 -0.5 -1.4375 -1.234375q-0.46875 -0.75 -0.46875 -1.671875q0 -1.0 0.578125 -1.875q0.578125 -0.890625 1.671875 -1.34375q1.109375 -0.453125 2.453125 -0.453125q1.484375 0 2.609375 0.484375q1.140625 0.46875 1.75 1.40625q0.609375 0.921875 0.65625 2.09375l-1.6875 0.125q-0.140625 -1.265625 -0.9375 -1.90625q-0.78125 -0.65625 -2.3125 -0.65625q-1.609375 0 -2.34375 0.59375q-0.734375 0.59375 -0.734375 1.421875q0 0.71875 0.53125 1.171875q0.5 0.46875 2.65625 0.96875q2.15625 0.484375 2.953125 0.84375q1.171875 0.53125 1.71875 1.359375q0.5625 0.828125 0.5625 1.90625q0 1.0625 -0.609375 2.015625q-0.609375 0.9375 -1.75 1.46875q-1.140625 0.515625 -2.578125 0.515625q-1.8125 0 -3.046875 -0.53125q-1.21875 -0.53125 -1.921875 -1.59375q-0.6875 -1.0625 -0.71875 -2.40625zm13.0686035 4.296875l0 -13.359375l5.921875 0q1.78125 0 2.703125 0.359375q0.9375 0.359375 1.484375 1.28125q0.5625 0.90625 0.5625 2.015625q0 1.40625 -0.921875 2.390625q-0.921875 0.96875 -2.84375 1.234375q0.703125 0.34375 1.078125 0.671875q0.765625 0.703125 1.453125 1.765625l2.328125 3.640625l-2.21875 0l-1.765625 -2.78125q-0.78125 -1.203125 -1.28125 -1.828125q-0.5 -0.640625 -0.90625 -0.890625q-0.390625 -0.265625 -0.796875 -0.359375q-0.296875 -0.078125 -0.984375 -0.078125l-2.046875 0l0 5.9375l-1.765625 0zm1.765625 -7.453125l3.796875 0q1.21875 0 1.890625 -0.25q0.6875 -0.265625 1.046875 -0.8125q0.359375 -0.546875 0.359375 -1.1875q0 -0.953125 -0.6875 -1.5625q-0.6875 -0.609375 -2.1875 -0.609375l-4.21875 0l0 4.421875zm10.207336 7.453125l5.125 -13.359375l1.90625 0l5.46875 13.359375l-2.015625 0l-1.546875 -4.046875l-5.59375 0l-1.46875 4.046875l-1.875 0zm3.859375 -5.484375l4.53125 0l-1.40625 -3.703125q-0.625 -1.6875 -0.9375 -2.765625q-0.265625 1.28125 -0.71875 2.546875l-1.46875 3.921875zm10.0060425 5.484375l0 -13.359375l2.65625 0l3.15625 9.453125q0.4375 1.328125 0.640625 1.984375q0.234375 -0.734375 0.703125 -2.140625l3.203125 -9.296875l2.375 0l0 13.359375l-1.703125 0l0 -11.171875l-3.875 11.171875l-1.59375 0l-3.859375 -11.375l0 11.375l-1.703125 0z" fill-rule="nonzero"/><path fill="#000000" fill-opacity="0.0" d="m628.3202 188.28609l-70.55115 0.28346252" fill-rule="evenodd"/><path stroke="#000000" stroke-width="2.0" stroke-linejoin="round" stroke-linecap="butt" d="m616.3203 188.33429l-58.55127 0.23526001" fill-rule="evenodd"/><path fill="#000000" stroke="#000000" stroke-width="2.0" stroke-linecap="butt" d="m616.33356 191.63774l9.062866 -3.3399048l-9.0894165 -3.2669678z" fill-rule="evenodd"/><path fill="#000000" fill-opacity="0.0" d="m463.3517 120.5538l0 63.55905l-20.787415 0l0 -63.55905z" fill-rule="evenodd"/><path stroke="#000000" stroke-width="2.0" stroke-linejoin="round" stroke-linecap="butt" d="m463.3517 120.5538l0 63.55905l-20.787415 0l0 -63.55905z" fill-rule="evenodd"/><path fill="#000000" d="m448.15802 132.10735l9.546875 0l0 1.25l-9.546875 0l0 -1.25zm4.640625 3.0936127q2.375 0 3.71875 1.28125q1.34375 1.28125 1.34375 3.296875q0 1.3125 -0.625 2.375q-0.625 1.0625 -1.765625 1.609375q-1.125 0.5625 -2.5625 0.5625q-1.4375 0 -2.59375 -0.59375q-1.140625 -0.578125 -1.734375 -1.65625q-0.578125 -1.0625 -0.578125 -2.3125q0 -1.34375 0.640625 -2.40625q0.65625 -1.0625 1.78125 -1.609375q1.125 -0.546875 2.375 -0.546875zm-0.015625 1.3125q-1.71875 0 -2.71875 0.921875q-0.984375 0.921875 -0.984375 2.328125q0 1.421875 1.0 2.34375q1.0 0.921875 2.84375 0.921875q1.15625 0 2.03125 -0.40625q0.875 -0.390625 1.34375 -1.15625q0.484375 -0.75 0.484375 -1.6875q0 -1.34375 -0.921875 -2.3125q-0.921875 -0.953125 -3.078125 -0.953125zm-4.625 9.445175l9.546875 0l0 3.59375q0 0.953125 -0.09375 1.453125q-0.125 0.703125 -0.453125 1.171875q-0.328125 0.484375 -0.921875 0.765625q-0.59375 0.296875 -1.296875 0.296875q-1.21875 0 -2.0625 -0.78125q-0.84375 -0.765625 -0.84375 -2.796875l0 -2.4375l-3.875 0l0 -1.265625zm5.0 1.265625l0 2.453125q0 1.234375 0.453125 1.75q0.46875 0.515625 1.28125 0.515625q0.609375 0 1.03125 -0.3125q0.421875 -0.296875 0.5625 -0.796875q0.09375 -0.3125 0.09375 -1.171875l0 -2.4375l-3.421875 0zm-5.0 7.5772552l9.546875 0l0 1.90625l-6.765625 2.25q-0.9375 0.3125 -1.40625 0.46875q0.515625 0.15625 1.53125 0.5l6.640625 2.28125l0 1.703125l-9.546875 0l0 -1.21875l7.984375 0l-7.984375 -2.765625l0 -1.140625l8.125 -2.765625l-8.125 0l0 -1.21875zm0 11.149307l9.546875 0l0 3.59375q0 0.953125 -0.09375 1.453125q-0.125 0.703125 -0.453125 1.171875q-0.328125 0.484375 -0.921875 0.765625q-0.59375 0.296875 -1.296875 0.296875q-1.21875 0 -2.0625 -0.78125q-0.84375 -0.765625 -0.84375 -2.796875l0 -2.4375l-3.875 0l0 -1.265625zm5.0 1.265625l0 2.453125q0 1.234375 0.453125 1.75q0.46875 0.515625 1.28125 0.515625q0.609375 0 1.03125 -0.3125q0.421875 -0.296875 0.5625 -0.796875q0.09375 -0.3125 0.09375 -1.171875l0 -2.4375l-3.421875 0z" fill-rule="nonzero"/><path fill="#000000" fill-opacity="0.0" d="m463.3517 197.02625l0 63.55905l-20.787415 0l0 -63.55905z" fill-rule="evenodd"/><path stroke="#000000" stroke-width="2.0" stroke-linejoin="round" stroke-linecap="butt" d="m463.3517 197.02625l0 63.55905l-20.787415 0l0 -63.55905z" fill-rule="evenodd"/><path fill="#000000" d="m448.15802 208.57979l9.546875 0l0 1.25l-9.546875 0l0 -1.25zm4.640625 3.0936127q2.375 0 3.71875 1.28125q1.34375 1.28125 1.34375 3.296875q0 1.3125 -0.625 2.375q-0.625 1.0625 -1.765625 1.609375q-1.125 0.5625 -2.5625 0.5625q-1.4375 0 -2.59375 -0.59375q-1.140625 -0.578125 -1.734375 -1.65625q-0.578125 -1.0625 -0.578125 -2.3125q0 -1.34375 0.640625 -2.40625q0.65625 -1.0625 1.78125 -1.609375q1.125 -0.546875 2.375 -0.546875zm-0.015625 1.3125q-1.71875 0 -2.71875 0.921875q-0.984375 0.921875 -0.984375 2.328125q0 1.421875 1.0 2.34375q1.0 0.921875 2.84375 0.921875q1.15625 0 2.03125 -0.40625q0.875 -0.390625 1.34375 -1.15625q0.484375 -0.75 0.484375 -1.6875q0 -1.34375 -0.921875 -2.3125q-0.921875 -0.953125 -3.078125 -0.953125zm-4.625 9.445175l9.546875 0l0 3.59375q0 0.953125 -0.09375 1.453125q-0.125 0.703125 -0.453125 1.171875q-0.328125 0.484375 -0.921875 0.765625q-0.59375 0.296875 -1.296875 0.296875q-1.21875 0 -2.0625 -0.78125q-0.84375 -0.765625 -0.84375 -2.796875l0 -2.4375l-3.875 0l0 -1.265625zm5.0 1.265625l0 2.453125q0 1.234375 0.453125 1.75q0.46875 0.515625 1.28125 0.515625q0.609375 0 1.03125 -0.3125q0.421875 -0.296875 0.5625 -0.796875q0.09375 -0.3125 0.09375 -1.171875l0 -2.4375l-3.421875 0zm-5.0 7.5772552l9.546875 0l0 1.90625l-6.765625 2.25q-0.9375 0.3125 -1.40625 0.46875q0.515625 0.15625 1.53125 0.5l6.640625 2.28125l0 1.703125l-9.546875 0l0 -1.21875l7.984375 0l-7.984375 -2.765625l0 -1.140625l8.125 -2.765625l-8.125 0l0 -1.21875zm0 11.149307l9.546875 0l0 3.59375q0 0.953125 -0.09375 1.453125q-0.125 0.703125 -0.453125 1.171875q-0.328125 0.484375 -0.921875 0.765625q-0.59375 0.296875 -1.296875 0.296875q-1.21875 0 -2.0625 -0.78125q-0.84375 -0.765625 -0.84375 -2.796875l0 -2.4375l-3.875 0l0 -1.265625zm5.0 1.265625l0 2.453125q0 1.234375 0.453125 1.75q0.46875 0.515625 1.28125 0.515625q0.609375 0 1.03125 -0.3125q0.421875 -0.296875 0.5625 -0.796875q0.09375 -0.3125 0.09375 -1.171875l0 -2.4375l-3.421875 0z" fill-rule="nonzero"/><path fill="#000000" fill-opacity="0.0" d="m463.3517 273.4987l0 63.55905l-20.787415 0l0 -63.55905z" fill-rule="evenodd"/><path stroke="#000000" stroke-width="2.0" stroke-linejoin="round" stroke-linecap="butt" d="m463.3517 273.4987l0 63.55905l-20.787415 0l0 -63.55905z" fill-rule="evenodd"/><path fill="#000000" d="m448.15802 285.05222l9.546875 0l0 1.25l-9.546875 0l0 -1.25zm4.640625 3.093628q2.375 0 3.71875 1.28125q1.34375 1.28125 1.34375 3.296875q0 1.3125 -0.625 2.375q-0.625 1.0625 -1.765625 1.609375q-1.125 0.5625 -2.5625 0.5625q-1.4375 0 -2.59375 -0.59375q-1.140625 -0.578125 -1.734375 -1.65625q-0.578125 -1.0625 -0.578125 -2.3125q0 -1.34375 0.640625 -2.40625q0.65625 -1.0625 1.78125 -1.609375q1.125 -0.546875 2.375 -0.546875zm-0.015625 1.3125q-1.71875 0 -2.71875 0.921875q-0.984375 0.921875 -0.984375 2.328125q0 1.421875 1.0 2.34375q1.0 0.921875 2.84375 0.921875q1.15625 0 2.03125 -0.40625q0.875 -0.390625 1.34375 -1.15625q0.484375 -0.75 0.484375 -1.6875q0 -1.34375 -0.921875 -2.3125q-0.921875 -0.953125 -3.078125 -0.953125zm-4.625 9.44516l9.546875 0l0 3.59375q0 0.953125 -0.09375 1.453125q-0.125 0.703125 -0.453125 1.171875q-0.328125 0.484375 -0.921875 0.765625q-0.59375 0.296875 -1.296875 0.296875q-1.21875 0 -2.0625 -0.78125q-0.84375 -0.765625 -0.84375 -2.796875l0 -2.4375l-3.875 0l0 -1.265625zm5.0 1.265625l0 2.453125q0 1.234375 0.453125 1.75q0.46875 0.515625 1.28125 0.515625q0.609375 0 1.03125 -0.3125q0.421875 -0.296875 0.5625 -0.796875q0.09375 -0.3125 0.09375 -1.171875l0 -2.4375l-3.421875 0zm-5.0 7.5772705l9.546875 0l0 1.90625l-6.765625 2.25q-0.9375 0.3125 -1.40625 0.46875q0.515625 0.15625 1.53125 0.5l6.640625 2.28125l0 1.703125l-9.546875 0l0 -1.21875l7.984375 0l-7.984375 -2.765625l0 -1.140625l8.125 -2.765625l-8.125 0l0 -1.21875zm0 11.149292l9.546875 0l0 3.59375q0 0.953125 -0.09375 1.453125q-0.125 0.703125 -0.453125 1.171875q-0.328125 0.484375 -0.921875 0.765625q-0.59375 0.296875 -1.296875 0.296875q-1.21875 0 -2.0625 -0.78125q-0.84375 -0.765625 -0.84375 -2.796875l0 -2.4375l-3.875 0l0 -1.265625zm5.0 1.265625l0 2.453125q0 1.234375 0.453125 1.75q0.46875 0.515625 1.28125 0.515625q0.609375 0 1.03125 -0.3125q0.421875 -0.296875 0.5625 -0.796875q0.09375 -0.3125 0.09375 -1.171875l0 -2.4375l-3.421875 0z" fill-rule="nonzero"/><path fill="#000000" fill-opacity="0.0" d="m509.91397 152.33333l-45.259857 0.34646606" fill-rule="evenodd"/><path stroke="#000000" stroke-width="2.0" stroke-linejoin="round" stroke-linecap="butt" d="m497.91434 152.42519l-33.260223 0.25460815" fill-rule="evenodd"/><path fill="#000000" stroke="#000000" stroke-width="2.0" stroke-linecap="butt" d="m497.9396 155.72856l9.050629 -3.3728485l-9.101196 -3.2338867z" fill-rule="evenodd"/><path fill="#000000" fill-opacity="0.0" d="m465.03635 228.979l45.29135 0.31495667" fill-rule="evenodd"/><path stroke="#000000" stroke-width="2.0" stroke-linejoin="round" stroke-linecap="butt" d="m465.03635 228.979l33.291626 0.23150635" fill-rule="evenodd"/><path fill="#000000" stroke="#000000" stroke-width="2.0" stroke-linecap="butt" d="m498.305 232.5139l9.098938 -3.240265l-9.053009 -3.3665009z" fill-rule="evenodd"/><path fill="#000000" fill-opacity="0.0" d="m463.95013 305.27823l45.29135 -0.0630188" fill-rule="evenodd"/><path stroke="#000000" stroke-width="2.0" stroke-linejoin="round" stroke-linecap="butt" d="m463.95013 305.27823l33.29132 -0.046325684" fill-rule="evenodd"/><path fill="#000000" stroke="#000000" stroke-width="2.0" stroke-linecap="butt" d="m497.24606 308.53537l9.071594 -3.3160706l-9.08078 -3.290863z" fill-rule="evenodd"/></g></svg>