<svg version="1.1" viewBox="0.0 0.0 1280.0 960.0" fill="none" stroke="none" stroke-linecap="square" stroke-miterlimit="10" xmlns:xlink="http://www.w3.org/1999/xlink" xmlns="http://www.w3.org/2000/svg"><clipPath id="p.0"><path d="m0 0l1280.0 0l0 960.0l-1280.0 0l0 -960.0z" clip-rule="nonzero"/></clipPath><g clip-path="url(#p.0)"><path fill="#000000" fill-opacity="0.0" d="m0 0l1280.0 0l0 960.0l-1280.0 0z" fill-rule="evenodd"/><path fill="#000000" fill-opacity="0.0" d="m446.8981 143.60579l0 0c0 -15.412094 12.493988 -27.906075 27.906067 -27.906075l111.62094 0l0 0c7.401123 0 14.4991455 2.940094 19.732544 8.1735c5.2333984 5.2333984 8.173523 12.331421 8.173523 19.732574l0 233.38472c0 15.412079 -12.4939575 27.906067 -27.906067 27.906067l-111.62094 0c-15.412079 0 -27.906067 -12.493988 -27.906067 -27.906067z" fill-rule="evenodd"/><path stroke="#000000" stroke-width="1.0" stroke-linejoin="round" stroke-linecap="butt" stroke-dasharray="1.0,3.0" d="m446.8981 143.60579l0 0c0 -15.412094 12.493988 -27.906075 27.906067 -27.906075l111.62094 0l0 0c7.401123 0 14.4991455 2.940094 19.732544 8.1735c5.2333984 5.2333984 8.173523 12.331421 8.173523 19.732574l0 233.38472c0 15.412079 -12.4939575 27.906067 -27.906067 27.906067l-111.62094 0c-15.412079 0 -27.906067 -12.493988 -27.906067 -27.906067z" fill-rule="evenodd"/><path fill="#000000" fill-opacity="0.0" d="m344.81976 142.01529l81.38583 0l0 54.834656l-81.38583 0z" fill-rule="evenodd"/><path stroke="#000000" stroke-width="2.0" stroke-linejoin="round" stroke-linecap="butt" d="m344.81976 142.01529l81.38583 0l0 54.834656l-81.38583 0z" fill-rule="evenodd"/><path fill="#000000" d="m356.64825 176.35262l0 -13.359375l1.765625 0l0 13.359375l-1.765625 0zm4.6832886 0l0 -9.671875l1.46875 0l0 1.375q1.0625 -1.59375 3.078125 -1.59375q0.875 0 1.609375 0.3125q0.734375 0.3125 1.09375 0.828125q0.375 0.5 0.515625 1.203125q0.09375 0.453125 0.09375 1.59375l0 5.953125l-1.640625 0l0 -5.890625q0 -1.0 -0.203125 -1.484375q-0.1875 -0.5 -0.671875 -0.796875q-0.484375 -0.296875 -1.140625 -0.296875q-1.046875 0 -1.8125 0.671875q-0.75 0.65625 -0.75 2.515625l0 5.28125l-1.640625 0zm11.875732 0l-1.515625 0l0 -13.359375l1.640625 0l0 4.765625q1.046875 -1.296875 2.65625 -1.296875q0.890625 0 1.6875 0.359375q0.796875 0.359375 1.3125 1.015625q0.515625 0.640625 0.796875 1.5625q0.296875 0.921875 0.296875 1.96875q0 2.484375 -1.234375 3.84375q-1.21875 1.359375 -2.953125 1.359375q-1.703125 0 -2.6875 -1.4375l0 1.21875zm-0.015625 -4.90625q0 1.734375 0.484375 2.515625q0.765625 1.265625 2.09375 1.265625q1.078125 0 1.859375 -0.9375q0.78125 -0.9375 0.78125 -2.78125q0 -1.890625 -0.75 -2.796875q-0.75 -0.90625 -1.828125 -0.90625q-1.0625 0 -1.859375 0.9375q-0.78125 0.9375 -0.78125 2.703125zm8.281952 0.0625q0 -2.6875 1.484375 -3.96875q1.25 -1.078125 3.046875 -1.078125q2.0 0 3.265625 1.3125q1.265625 1.296875 1.265625 3.609375q0 1.859375 -0.5625 2.9375q-0.5625 1.0625 -1.640625 1.65625q-1.0625 0.59375 -2.328125 0.59375q-2.03125 0 -3.28125 -1.296875q-1.25 -1.3125 -1.25 -3.765625zm1.6875 0q0 1.859375 0.796875 2.796875q0.8125 0.921875 2.046875 0.921875q1.21875 0 2.03125 -0.921875q0.8125 -0.9375 0.8125 -2.84375q0 -1.796875 -0.8125 -2.71875q-0.8125 -0.921875 -2.03125 -0.921875q-1.234375 0 -2.046875 0.921875q-0.796875 0.90625 -0.796875 2.765625zm8.203857 4.84375l3.53125 -5.03125l-3.265625 -4.640625l2.046875 0l1.484375 2.265625q0.421875 0.640625 0.671875 1.078125q0.40625 -0.59375 0.734375 -1.0625l1.640625 -2.28125l1.953125 0l-3.34375 4.546875l3.59375 5.125l-2.015625 0l-1.984375 -3.0l-0.515625 -0.8125l-2.546875 3.8125l-1.984375 0zm15.152039 -6.59375q0 -2.359375 0.484375 -3.796875q0.484375 -1.453125 1.4375 -2.234375q0.96875 -0.78125 2.421875 -0.78125q1.078125 0 1.890625 0.4375q0.8125 0.421875 1.328125 1.25q0.53125 0.8125 0.828125 1.984375q0.3125 1.15625 0.3125 3.140625q0 2.359375 -0.484375 3.8125q-0.484375 1.4375 -1.453125 2.234375q-0.953125 0.78125 -2.421875 0.78125q-1.921875 0 -3.03125 -1.390625q-1.3125 -1.671875 -1.3125 -5.4375zm1.671875 0q0 3.296875 0.765625 4.390625q0.78125 1.078125 1.90625 1.078125q1.140625 0 1.90625 -1.09375q0.765625 -1.09375 0.765625 -4.375q0 -3.296875 -0.765625 -4.375q-0.765625 -1.078125 -1.921875 -1.078125q-1.125 0 -1.796875 0.953125q-0.859375 1.21875 -0.859375 4.5z" fill-rule="nonzero"/><path fill="#000000" fill-opacity="0.0" d="m345.8493 233.98239l81.3858 0l0 54.834656l-81.3858 0z" fill-rule="evenodd"/><path stroke="#000000" stroke-width="2.0" stroke-linejoin="round" stroke-linecap="butt" d="m345.8493 233.98239l81.3858 0l0 54.834656l-81.3858 0z" fill-rule="evenodd"/><path fill="#000000" d="m357.6778 268.3197l0 -13.359375l1.765625 0l0 13.359375l-1.765625 0zm4.6832886 0l0 -9.671875l1.46875 0l0 1.375q1.0625 -1.59375 3.078125 -1.59375q0.875 0 1.609375 0.3125q0.734375 0.3125 1.09375 0.828125q0.375 0.5 0.515625 1.203125q0.09375 0.453125 0.09375 1.59375l0 5.953125l-1.640625 0l0 -5.890625q0 -1.0 -0.203125 -1.484375q-0.1875 -0.5 -0.671875 -0.796875q-0.484375 -0.296875 -1.140625 -0.296875q-1.046875 0 -1.8125 0.671875q-0.75 0.65625 -0.75 2.515625l0 5.28125l-1.640625 0zm11.875732 0l-1.515625 0l0 -13.359375l1.640625 0l0 4.765625q1.046875 -1.296875 2.65625 -1.296875q0.890625 0 1.6875 0.359375q0.796875 0.359375 1.3125 1.015625q0.515625 0.640625 0.796875 1.5625q0.296875 0.921875 0.296875 1.96875q0 2.484375 -1.234375 3.84375q-1.21875 1.359375 -2.953125 1.359375q-1.703125 0 -2.6875 -1.4375l0 1.21875zm-0.015625 -4.90625q0 1.734375 0.484375 2.515625q0.765625 1.265625 2.09375 1.265625q1.078125 0 1.859375 -0.9375q0.78125 -0.9375 0.78125 -2.78125q0 -1.890625 -0.75 -2.796875q-0.75 -0.90625 -1.828125 -0.90625q-1.0625 0 -1.859375 0.9375q-0.78125 0.9375 -0.78125 2.703125zm8.281952 0.0625q0 -2.6875 1.484375 -3.96875q1.25 -1.078125 3.046875 -1.078125q2.0 0 3.265625 1.3125q1.265625 1.296875 1.265625 3.609375q0 1.859375 -0.5625 2.9375q-0.5625 1.0625 -1.640625 1.65625q-1.0625 0.59375 -2.328125 0.59375q-2.03125 0 -3.28125 -1.296875q-1.25 -1.3125 -1.25 -3.765625zm1.6875 0q0 1.859375 0.796875 2.796875q0.8125 0.921875 2.046875 0.921875q1.21875 0 2.03125 -0.921875q0.8125 -0.9375 0.8125 -2.84375q0 -1.796875 -0.8125 -2.71875q-0.8125 -0.921875 -2.03125 -0.921875q-1.234375 0 -2.046875 0.921875q-0.796875 0.90625 -0.796875 2.765625zm8.203857 4.84375l3.53125 -5.03125l-3.265625 -4.640625l2.046875 0l1.484375 2.265625q0.421875 0.640625 0.671875 1.078125q0.40625 -0.59375 0.734375 -1.0625l1.640625 -2.28125l1.953125 0l-3.34375 4.546875l3.59375 5.125l-2.015625 0l-1.984375 -3.0l-0.515625 -0.8125l-2.546875 3.8125l-1.984375 0zm21.323914 0l-1.640625 0l0 -10.453125q-0.59375 0.5625 -1.5625 1.140625q-0.953125 0.5625 -1.71875 0.84375l0 -1.59375q1.375 -0.640625 2.40625 -1.5625q1.03125 -0.921875 1.453125 -1.78125l1.0625 0l0 13.40625z" fill-rule="nonzero"/><path fill="#fff2cc" d="m541.6388 141.48157l0 243.1181l50.614136 0l0 -243.1181z" fill-rule="evenodd"/><path stroke="#000000" stroke-width="2.0" stroke-linejoin="round" stroke-linecap="butt" d="m541.6388 141.48157l0 243.1181l50.614136 0l0 -243.1181z" fill-rule="evenodd"/><path fill="#000000" d="m573.86584 349.7844l-13.359375 0l0 -2.65625l9.453125 -3.15625q1.328125 -0.4375 1.984375 -0.640625q-0.734375 -0.234375 -2.140625 -0.703125l-9.296875 -3.203125l0 -2.375l13.359375 0l0 1.703125l-11.171875 0l11.171875 3.875l0 1.59375l-11.375 3.859375l11.375 0l0 1.703125zm-1.1875 -21.697052q0.765625 0.921875 1.09375 1.765625q0.3125 0.828125 0.3125 1.796875q0 1.59375 -0.78125 2.453125q-0.78125 0.859375 -1.984375 0.859375q-0.71875 0 -1.296875 -0.328125q-0.59375 -0.328125 -0.9375 -0.84375q-0.359375 -0.53125 -0.546875 -1.1875q-0.125 -0.46875 -0.25 -1.453125q-0.234375 -1.984375 -0.5625 -2.921875q-0.34375 -0.015625 -0.421875 -0.015625q-1.0 0 -1.421875 0.46875q-0.546875 0.625 -0.546875 1.875q0 1.15625 0.40625 1.703125q0.40625 0.546875 1.421875 0.8125l-0.21875 1.609375q-1.015625 -0.21875 -1.640625 -0.71875q-0.640625 -0.5 -0.984375 -1.453125q-0.34375 -0.953125 -0.34375 -2.1875q0 -1.25 0.296875 -2.015625q0.28125 -0.78125 0.734375 -1.140625q0.4375 -0.375 1.109375 -0.515625q0.421875 -0.078125 1.515625 -0.078125l2.1875 0q2.28125 0 2.890625 -0.109375q0.59375 -0.109375 1.15625 -0.40625l0 1.703125q-0.515625 0.265625 -1.1875 0.328125zm-3.671875 0.140625q0.375 0.890625 0.625 2.671875q0.140625 1.015625 0.328125 1.4375q0.1875 0.421875 0.53125 0.65625q0.34375 0.21875 0.78125 0.21875q0.65625 0 1.09375 -0.5q0.4375 -0.5 0.4375 -1.453125q0 -0.9375 -0.40625 -1.671875q-0.421875 -0.75 -1.140625 -1.09375q-0.5625 -0.265625 -1.640625 -0.265625l-0.609375 0zm-6.609375 -4.2038574l-1.890625 0l0 -1.640625l1.890625 0l0 1.640625zm11.46875 0l-9.671875 0l0 -1.640625l9.671875 0l0 1.640625zm0 -4.097931l-13.359375 0l0 -1.640625l13.359375 0l0 1.640625zm0 -5.6917114l0 1.515625l-13.359375 0l0 -1.640625l4.765625 0q-1.296875 -1.046875 -1.296875 -2.65625q0 -0.890625 0.359375 -1.6875q0.359375 -0.796875 1.015625 -1.3125q0.640625 -0.515625 1.5625 -0.796875q0.921875 -0.296875 1.96875 -0.296875q2.484375 0 3.84375 1.234375q1.359375 1.21875 1.359375 2.953125q0 1.703125 -1.4375 2.6875l1.21875 0zm-4.90625 0.015625q1.734375 0 2.515625 -0.484375q1.265625 -0.765625 1.265625 -2.09375q0 -1.078125 -0.9375 -1.859375q-0.9375 -0.78125 -2.78125 -0.78125q-1.890625 0 -2.796875 0.75q-0.90625 0.75 -0.90625 1.828125q0 1.0625 0.9375 1.859375q0.9375 0.78125 2.703125 0.78125zm0.0625 -8.281952q-2.6875 0 -3.96875 -1.484375q-1.078125 -1.25 -1.078125 -3.046875q0 -2.0 1.3125 -3.265625q1.296875 -1.265625 3.609375 -1.265625q1.859375 0 2.9375 0.5625q1.0625 0.5625 1.65625 1.640625q0.59375 1.0625 0.59375 2.328125q0 2.03125 -1.296875 3.28125q-1.3125 1.25 -3.765625 1.25zm0 -1.6875q1.859375 0 2.796875 -0.796875q0.921875 -0.8125 0.921875 -2.046875q0 -1.21875 -0.921875 -2.03125q-0.9375 -0.8125 -2.84375 -0.8125q-1.796875 0 -2.71875 0.8125q-0.921875 0.8125 -0.921875 2.03125q0 1.234375 0.921875 2.046875q0.90625 0.796875 2.765625 0.796875zm4.84375 -8.203857l-5.03125 -3.53125l-4.640625 3.265625l0 -2.046875l2.265625 -1.484375q0.640625 -0.421875 1.078125 -0.671875q-0.59375 -0.40625 -1.0625 -0.734375l-2.28125 -1.640625l0 -1.953125l4.546875 3.34375l5.125 -3.59375l0 2.015625l-3.0 1.984375l-0.8125 0.515625l3.8125 2.546875l0 1.984375zm-4.296875 -15.214539l-0.140625 -1.65625q1.0 -0.125 1.640625 -0.546875q0.640625 -0.4375 1.046875 -1.34375q0.390625 -0.921875 0.390625 -2.0625q0 -1.0 -0.296875 -1.78125q-0.296875 -0.78125 -0.8125 -1.15625q-0.53125 -0.375 -1.15625 -0.375q-0.625 0 -1.09375 0.375q-0.46875 0.359375 -0.796875 1.1875q-0.203125 0.546875 -0.640625 2.390625q-0.453125 1.828125 -0.84375 2.5625q-0.5 0.96875 -1.234375 1.4375q-0.75 0.46875 -1.671875 0.46875q-1.0 0 -1.875 -0.578125q-0.890625 -0.578125 -1.34375 -1.671875q-0.453125 -1.109375 -0.453125 -2.453125q0 -1.484375 0.484375 -2.609375q0.46875 -1.140625 1.40625 -1.75q0.921875 -0.609375 2.09375 -0.65625l0.125 1.6875q-1.265625 0.140625 -1.90625 0.9375q-0.65625 0.78125 -0.65625 2.3125q0 1.609375 0.59375 2.34375q0.59375 0.734375 1.421875 0.734375q0.71875 0 1.171875 -0.53125q0.46875 -0.5 0.96875 -2.65625q0.484375 -2.15625 0.84375 -2.953125q0.53125 -1.171875 1.359375 -1.71875q0.828125 -0.5625 1.90625 -0.5625q1.0625 0 2.015625 0.609375q0.9375 0.609375 1.46875 1.75q0.515625 1.140625 0.515625 2.578125q0 1.8125 -0.53125 3.046875q-0.53125 1.21875 -1.59375 1.921875q-1.0625 0.6875 -2.40625 0.71875zm4.296875 -12.834198l-13.359375 0l0 -1.640625l4.796875 0q-1.328125 -1.140625 -1.328125 -2.890625q0 -1.078125 0.421875 -1.859375q0.421875 -0.796875 1.171875 -1.140625q0.75 -0.34375 2.171875 -0.34375l6.125 0l0 1.640625l-6.125 0q-1.234375 0 -1.796875 0.53125q-0.5625 0.53125 -0.5625 1.515625q0 0.71875 0.390625 1.359375q0.375 0.640625 1.015625 0.921875q0.640625 0.265625 1.78125 0.265625l5.296875 0l0 1.640625zm-1.1875 -16.688232q0.765625 0.921875 1.09375 1.765625q0.3125 0.828125 0.3125 1.796875q0 1.59375 -0.78125 2.453125q-0.78125 0.859375 -1.984375 0.859375q-0.71875 0 -1.296875 -0.328125q-0.59375 -0.328125 -0.9375 -0.84375q-0.359375 -0.53125 -0.546875 -1.1875q-0.125 -0.46875 -0.25 -1.453125q-0.234375 -1.984375 -0.5625 -2.921875q-0.34375 -0.015625 -0.421875 -0.015625q-1.0 0 -1.421875 0.46875q-0.546875 0.625 -0.546875 1.875q0 1.15625 0.40625 1.703125q0.40625 0.546875 1.421875 0.8125l-0.21875 1.609375q-1.015625 -0.21875 -1.640625 -0.71875q-0.640625 -0.5 -0.984375 -1.453125q-0.34375 -0.953125 -0.34375 -2.1875q0 -1.25 0.296875 -2.015625q0.28125 -0.78125 0.734375 -1.140625q0.4375 -0.375 1.109375 -0.515625q0.421875 -0.078125 1.515625 -0.078125l2.1875 0q2.28125 0 2.890625 -0.109375q0.59375 -0.109375 1.15625 -0.40625l0 1.703125q-0.515625 0.265625 -1.1875 0.328125zm-3.671875 0.140625q0.375 0.890625 0.625 2.671875q0.140625 1.015625 0.328125 1.4375q0.1875 0.421875 0.53125 0.65625q0.34375 0.21875 0.78125 0.21875q0.65625 0 1.09375 -0.5q0.4375 -0.5 0.4375 -1.453125q0 -0.9375 -0.40625 -1.671875q-0.421875 -0.75 -1.140625 -1.09375q-0.5625 -0.265625 -1.640625 -0.265625l-0.609375 0zm4.859375 -4.188217l-9.671875 0l0 -1.46875l1.46875 0q-1.03125 -0.5625 -1.359375 -1.03125q-0.328125 -0.484375 -0.328125 -1.0625q0 -0.828125 0.53125 -1.6875l1.515625 0.5625q-0.359375 0.609375 -0.359375 1.203125q0 0.546875 0.328125 0.96875q0.328125 0.421875 0.890625 0.609375q0.875 0.28125 1.921875 0.28125l5.0625 0l0 1.625zm-3.109375 -12.853302l0.203125 -1.6875q1.484375 0.40625 2.3125 1.484375q0.8125 1.078125 0.8125 2.765625q0 2.125 -1.296875 3.375q-1.3125 1.234375 -3.671875 1.234375q-2.453125 0 -3.796875 -1.25q-1.34375 -1.265625 -1.34375 -3.265625q0 -1.9375 1.328125 -3.15625q1.3125 -1.234375 3.703125 -1.234375q0.15625 0 0.4375 0l0 7.21875q1.59375 -0.09375 2.453125 -0.90625q0.84375 -0.8125 0.84375 -2.015625q0 -0.90625 -0.46875 -1.546875q-0.484375 -0.640625 -1.515625 -1.015625zm-2.65625 5.390625l0 -5.40625q-1.21875 0.109375 -1.828125 0.625q-0.953125 0.78125 -0.953125 2.03125q0 1.125 0.765625 1.90625q0.75 0.765625 2.015625 0.84375zm5.765625 -15.406967l-1.21875 0q1.4375 0.90625 1.4375 2.703125q0 1.15625 -0.640625 2.125q-0.640625 0.96875 -1.78125 1.5q-1.140625 0.53125 -2.625 0.53125q-1.453125 0 -2.625 -0.484375q-1.1875 -0.484375 -1.8125 -1.4375q-0.625 -0.96875 -0.625 -2.171875q0 -0.875 0.375 -1.546875q0.359375 -0.6875 0.953125 -1.109375l-4.796875 0l0 -1.640625l13.359375 0l0 1.53125zm-4.828125 5.171875q1.859375 0 2.78125 -0.78125q0.921875 -0.78125 0.921875 -1.84375q0 -1.078125 -0.875 -1.828125q-0.890625 -0.75 -2.6875 -0.75q-1.984375 0 -2.90625 0.765625q-0.9375 0.765625 -0.9375 1.890625q0 1.078125 0.890625 1.8125q0.890625 0.734375 2.8125 0.734375zm4.828125 -14.621521l-13.359375 0l0 -2.65625l9.453125 -3.15625q1.328125 -0.4375 1.984375 -0.640625q-0.734375 -0.234375 -2.140625 -0.703125l-9.296875 -3.203125l0 -2.375l13.359375 0l0 1.703125l-11.171875 0l11.171875 3.875l0 1.59375l-11.375 3.859375l11.375 0l0 1.703125zm-3.109375 -22.009552l0.203125 -1.6875q1.484375 0.40625 2.3125 1.484375q0.8125 1.078125 0.8125 2.765625q0 2.125 -1.296875 3.375q-1.3125 1.234375 -3.671875 1.234375q-2.453125 0 -3.796875 -1.25q-1.34375 -1.265625 -1.34375 -3.265625q0 -1.9375 1.328125 -3.15625q1.3125 -1.234375 3.703125 -1.234375q0.15625 0 0.4375 0l0 7.21875q1.59375 -0.09375 2.453125 -0.90625q0.84375 -0.8125 0.84375 -2.015625q0 -0.90625 -0.46875 -1.546875q-0.484375 -0.640625 -1.515625 -1.015625zm-2.65625 5.390625l0 -5.40625q-1.21875 0.109375 -1.828125 0.625q-0.953125 0.78125 -0.953125 2.03125q0 1.125 0.765625 1.90625q0.75 0.765625 2.015625 0.84375zm5.765625 -9.141342l-9.671875 0l0 -1.46875l1.359375 0q-0.71875 -0.453125 -1.140625 -1.203125q-0.4375 -0.765625 -0.4375 -1.71875q0 -1.078125 0.453125 -1.765625q0.4375 -0.6875 1.234375 -0.96875q-1.6875 -1.15625 -1.6875 -2.984375q0 -1.453125 0.796875 -2.21875q0.796875 -0.78125 2.453125 -0.78125l6.640625 0l0 1.640625l-6.09375 0q-0.984375 0 -1.40625 0.15625q-0.4375 0.15625 -0.703125 0.578125q-0.265625 0.421875 -0.265625 0.984375q0 1.015625 0.6875 1.6875q0.671875 0.671875 2.15625 0.671875l5.625 0l0 1.640625l-6.28125 0q-1.09375 0 -1.640625 0.40625q-0.546875 0.40625 -0.546875 1.3125q0 0.6875 0.359375 1.28125q0.359375 0.59375 1.0625 0.859375q0.703125 0.25 2.03125 0.25l5.015625 0l0 1.640625z" fill-rule="nonzero"/><path fill="#000000" fill-opacity="0.0" d="m344.81976 325.9495l81.38583 0l0 54.834625l-81.38583 0z" fill-rule="evenodd"/><path stroke="#000000" stroke-width="2.0" stroke-linejoin="round" stroke-linecap="butt" d="m344.81976 325.9495l81.38583 0l0 54.834625l-81.38583 0z" fill-rule="evenodd"/><path fill="#000000" d="m356.64825 360.2868l0 -13.359375l1.765625 0l0 13.359375l-1.765625 0zm4.6832886 0l0 -9.671875l1.46875 0l0 1.375q1.0625 -1.59375 3.078125 -1.59375q0.875 0 1.609375 0.3125q0.734375 0.3125 1.09375 0.828125q0.375 0.5 0.515625 1.203125q0.09375 0.453125 0.09375 1.59375l0 5.953125l-1.640625 0l0 -5.890625q0 -1.0 -0.203125 -1.484375q-0.1875 -0.5 -0.671875 -0.796875q-0.484375 -0.296875 -1.140625 -0.296875q-1.046875 0 -1.8125 0.671875q-0.75 0.65625 -0.75 2.515625l0 5.28125l-1.640625 0zm11.875732 0l-1.515625 0l0 -13.359375l1.640625 0l0 4.765625q1.046875 -1.296875 2.65625 -1.296875q0.890625 0 1.6875 0.359375q0.796875 0.359375 1.3125 1.015625q0.515625 0.640625 0.796875 1.5625q0.296875 0.921875 0.296875 1.96875q0 2.484375 -1.234375 3.84375q-1.21875 1.359375 -2.953125 1.359375q-1.703125 0 -2.6875 -1.4375l0 1.21875zm-0.015625 -4.90625q0 1.734375 0.484375 2.515625q0.765625 1.265625 2.09375 1.265625q1.078125 0 1.859375 -0.9375q0.78125 -0.9375 0.78125 -2.78125q0 -1.890625 -0.75 -2.796875q-0.75 -0.90625 -1.828125 -0.90625q-1.0625 0 -1.859375 0.9375q-0.78125 0.9375 -0.78125 2.703125zm8.281952 0.0625q0 -2.6875 1.484375 -3.96875q1.25 -1.078125 3.046875 -1.078125q2.0 0 3.265625 1.3125q1.265625 1.296875 1.265625 3.609375q0 1.859375 -0.5625 2.9375q-0.5625 1.0625 -1.640625 1.65625q-1.0625 0.59375 -2.328125 0.59375q-2.03125 0 -3.28125 -1.296875q-1.25 -1.3125 -1.25 -3.765625zm1.6875 0q0 1.859375 0.796875 2.796875q0.8125 0.921875 2.046875 0.921875q1.21875 0 2.03125 -0.921875q0.8125 -0.9375 0.8125 -2.84375q0 -1.796875 -0.8125 -2.71875q-0.8125 -0.921875 -2.03125 -0.921875q-1.234375 0 -2.046875 0.921875q-0.796875 0.90625 -0.796875 2.765625zm8.203857 4.84375l3.53125 -5.03125l-3.265625 -4.640625l2.046875 0l1.484375 2.265625q0.421875 0.640625 0.671875 1.078125q0.40625 -0.59375 0.734375 -1.0625l1.640625 -2.28125l1.953125 0l-3.34375 4.546875l3.59375 5.125l-2.015625 0l-1.984375 -3.0l-0.515625 -0.8125l-2.546875 3.8125l-1.984375 0zm23.761414 -1.578125l0 1.578125l-8.828125 0q-0.015625 -0.59375 0.1875 -1.140625q0.34375 -0.90625 1.078125 -1.78125q0.75 -0.875 2.15625 -2.015625q2.171875 -1.78125 2.9375 -2.828125q0.765625 -1.046875 0.765625 -1.96875q0 -0.984375 -0.703125 -1.640625q-0.6875 -0.671875 -1.8125 -0.671875q-1.1875 0 -1.90625 0.71875q-0.703125 0.703125 -0.703125 1.953125l-1.6875 -0.171875q0.171875 -1.890625 1.296875 -2.875q1.140625 -0.984375 3.03125 -0.984375q1.921875 0 3.046875 1.0625q1.125 1.0625 1.125 2.640625q0 0.796875 -0.328125 1.578125q-0.328125 0.78125 -1.09375 1.640625q-0.75 0.84375 -2.53125 2.34375q-1.46875 1.234375 -1.890625 1.6875q-0.421875 0.4375 -0.6875 0.875l6.546875 0z" fill-rule="nonzero"/><path fill="#cfe2f3" d="m669.4127 383.37778l0 0c-7.3030396 0 -13.223328 -5.920288 -13.223328 -13.223358l0 -215.66351c0 -3.5070496 1.3931274 -6.870468 3.8729858 -9.350327c2.4798584 -2.4798584 5.8433228 -3.8730316 9.350342 -3.8730316l52.891846 0c7.3031006 0 13.223389 5.9203033 13.223389 13.223358l0 215.66351c0 7.30307 -5.920288 13.223358 -13.223389 13.223358z" fill-rule="evenodd"/><path stroke="#000000" stroke-width="2.0" stroke-linejoin="round" stroke-linecap="butt" d="m669.4127 383.37778l0 0c-7.3030396 0 -13.223328 -5.920288 -13.223328 -13.223358l0 -215.66351c0 -3.5070496 1.3931274 -6.870468 3.8729858 -9.350327c2.4798584 -2.4798584 5.8433228 -3.8730316 9.350342 -3.8730316l52.891846 0c7.3031006 0 13.223389 5.9203033 13.223389 13.223358l0 215.66351c0 7.30307 -5.920288 13.223358 -13.223389 13.223358z" fill-rule="evenodd"/><path fill="#000000" d="m702.7787 311.55725l-11.78125 0l0 4.40625l-1.578125 0l0 -10.578125l1.578125 0l0 4.40625l11.78125 0l0 1.765625zm0 -7.911621l-13.359375 0l0 -1.78125l11.78125 0l0 -6.5625l1.578125 0l0 8.34375zm-4.015625 -9.610077l-1.640625 0l0 -5.03125l1.640625 0l0 5.03125zm-9.34375 -15.822052l0 -1.765625l7.71875 0q2.015625 0 3.203125 0.453125q1.1875 0.453125 1.9375 1.640625q0.734375 1.1875 0.734375 3.125q0 1.875 -0.640625 3.078125q-0.65625 1.1875 -1.875 1.703125q-1.234375 0.5 -3.359375 0.5l-7.71875 0l0 -1.765625l7.71875 0q1.734375 0 2.5625 -0.3125q0.8125 -0.328125 1.265625 -1.109375q0.453125 -0.796875 0.453125 -1.9375q0 -1.953125 -0.890625 -2.78125q-0.890625 -0.828125 -3.390625 -0.828125l-7.71875 0zm13.359375 -4.6292114l-13.359375 0l0 -1.78125l11.78125 0l0 -6.5625l1.578125 0l0 8.34375zm0 -15.0381775l-13.359375 0l0 -9.015625l1.578125 0l0 7.25l4.140625 0l0 -6.265625l1.578125 0l0 6.265625l6.0625 0l0 1.765625zm-1.1875 -17.41159q0.765625 0.921875 1.09375 1.765625q0.3125 0.828125 0.3125 1.796875q0 1.59375 -0.78125 2.453125q-0.78125 0.859375 -1.984375 0.859375q-0.71875 0 -1.296875 -0.328125q-0.59375 -0.328125 -0.9375 -0.84375q-0.359375 -0.53125 -0.546875 -1.1875q-0.125 -0.46875 -0.25 -1.453125q-0.234375 -1.984375 -0.5625 -2.921875q-0.34375 -0.015625 -0.421875 -0.015625q-1.0 0 -1.421875 0.46875q-0.546875 0.625 -0.546875 1.875q0 1.15625 0.40625 1.703125q0.40625 0.546875 1.421875 0.8125l-0.21875 1.609375q-1.015625 -0.21875 -1.640625 -0.71875q-0.640625 -0.5 -0.984375 -1.453125q-0.34375 -0.953125 -0.34375 -2.1875q0 -1.25 0.296875 -2.015625q0.28125 -0.78125 0.734375 -1.140625q0.4375 -0.375 1.109375 -0.515625q0.421875 -0.078125 1.515625 -0.078125l2.1875 0q2.28125 0 2.890625 -0.109375q0.59375 -0.109375 1.15625 -0.40625l0 1.703125q-0.515625 0.265625 -1.1875 0.328125zm-3.671875 0.140625q0.375 0.890625 0.625 2.671875q0.140625 1.015625 0.328125 1.4375q0.1875 0.421875 0.53125 0.65625q0.34375 0.21875 0.78125 0.21875q0.65625 0 1.09375 -0.5q0.4375 -0.5 0.4375 -1.453125q0 -0.9375 -0.40625 -1.671875q-0.421875 -0.75 -1.140625 -1.09375q-0.5625 -0.265625 -1.640625 -0.265625l-0.609375 0zm4.859375 -5.7038574l0 1.515625l-13.359375 0l0 -1.640625l4.765625 0q-1.296875 -1.046875 -1.296875 -2.65625q0 -0.890625 0.359375 -1.6875q0.359375 -0.796875 1.015625 -1.3125q0.640625 -0.515625 1.5625 -0.796875q0.921875 -0.296875 1.96875 -0.296875q2.484375 0 3.84375 1.234375q1.359375 1.21875 1.359375 2.953125q0 1.703125 -1.4375 2.6875l1.21875 0zm-4.90625 0.015625q1.734375 0 2.515625 -0.484375q1.265625 -0.765625 1.265625 -2.09375q0 -1.078125 -0.9375 -1.859375q-0.9375 -0.78125 -2.78125 -0.78125q-1.890625 0 -2.796875 0.75q-0.90625 0.75 -0.90625 1.828125q0 1.0625 0.9375 1.859375q0.9375 0.78125 2.703125 0.78125zm4.90625 -8.875702l-9.671875 0l0 -1.46875l1.46875 0q-1.03125 -0.5625 -1.359375 -1.03125q-0.328125 -0.484375 -0.328125 -1.0625q0 -0.828125 0.53125 -1.6875l1.515625 0.5625q-0.359375 0.609375 -0.359375 1.203125q0 0.546875 0.328125 0.96875q0.328125 0.421875 0.890625 0.609375q0.875 0.28125 1.921875 0.28125l5.0625 0l0 1.625zm-11.46875 -6.228302l-1.890625 0l0 -1.640625l1.890625 0l0 1.640625zm11.46875 0l-9.671875 0l0 -1.640625l9.671875 0l0 1.640625zm-3.546875 -10.457336l0.21875 -1.609375q1.65625 0.265625 2.609375 1.359375q0.9375 1.078125 0.9375 2.671875q0 1.984375 -1.296875 3.1875q-1.296875 1.203125 -3.71875 1.203125q-1.578125 0 -2.75 -0.515625q-1.171875 -0.515625 -1.75 -1.578125q-0.59375 -1.0625 -0.59375 -2.3125q0 -1.578125 0.796875 -2.578125q0.796875 -1.0 2.265625 -1.28125l0.234375 1.59375q-0.96875 0.234375 -1.453125 0.8125q-0.5 0.578125 -0.5 1.390625q0 1.234375 0.890625 2.015625q0.890625 0.78125 2.8125 0.78125q1.953125 0 2.84375 -0.75q0.875 -0.75 0.875 -1.953125q0 -0.96875 -0.59375 -1.609375q-0.59375 -0.65625 -1.828125 -0.828125z" fill-rule="nonzero"/><path fill="#000000" fill-opacity="0.0" d="m789.0844 234.44301l111.93701 0l0 54.83464l-111.93701 0z" fill-rule="evenodd"/><path stroke="#000000" stroke-width="2.0" stroke-linejoin="round" stroke-linecap="butt" d="m789.0844 234.44301l111.93701 0l0 54.83464l-111.93701 0z" fill-rule="evenodd"/><path fill="#000000" d="m825.5303 268.78033l0 -13.359375l1.765625 0l0 13.359375l-1.765625 0zm4.8083496 0l0 -13.359375l5.015625 0q1.53125 0 2.453125 0.40625q0.921875 0.40625 1.4375 1.25q0.53125 0.84375 0.53125 1.765625q0 0.859375 -0.46875 1.625q-0.453125 0.75 -1.390625 1.203125q1.203125 0.359375 1.859375 1.21875q0.65625 0.859375 0.65625 2.015625q0 0.9375 -0.40625 1.75q-0.390625 0.796875 -0.984375 1.234375q-0.578125 0.4375 -1.453125 0.671875q-0.875 0.21875 -2.15625 0.21875l-5.09375 0zm1.78125 -7.75l2.875 0q1.1875 0 1.6875 -0.140625q0.671875 -0.203125 1.015625 -0.671875q0.34375 -0.46875 0.34375 -1.171875q0 -0.65625 -0.328125 -1.15625q-0.3125 -0.515625 -0.90625 -0.703125q-0.59375 -0.1875 -2.03125 -0.1875l-2.65625 0l0 4.03125zm0 6.171875l3.3125 0q0.859375 0 1.203125 -0.0625q0.609375 -0.109375 1.015625 -0.359375q0.421875 -0.265625 0.6875 -0.75q0.265625 -0.484375 0.265625 -1.125q0 -0.75 -0.390625 -1.296875q-0.375 -0.546875 -1.0625 -0.765625q-0.671875 -0.234375 -1.953125 -0.234375l-3.078125 0l0 4.59375zm10.7716675 1.578125l0 -13.359375l9.65625 0l0 1.578125l-7.875 0l0 4.09375l7.375 0l0 1.5625l-7.375 0l0 4.546875l8.1875 0l0 1.578125l-9.96875 0zm11.0529785 0l5.171875 -6.953125l-4.5625 -6.40625l2.109375 0l2.421875 3.4375q0.75 1.0625 1.078125 1.625q0.4375 -0.71875 1.046875 -1.515625l2.6875 -3.546875l1.921875 0l-4.6875 6.296875l5.0625 7.0625l-2.1875 0l-3.359375 -4.765625q-0.28125 -0.40625 -0.59375 -0.890625q-0.4375 0.734375 -0.625 1.0l-3.359375 4.65625l-2.125 0z" fill-rule="nonzero"/><path fill="#000000" fill-opacity="0.0" d="m789.0844 261.86032l-53.543274 0.47244263" fill-rule="evenodd"/><path stroke="#000000" stroke-width="2.0" stroke-linejoin="round" stroke-linecap="butt" d="m789.0844 261.86035l-41.543823 0.36654663" fill-rule="evenodd"/><path fill="#000000" stroke="#000000" stroke-width="2.0" stroke-linecap="butt" d="m747.5115 258.92355l-9.046692 3.3834229l9.10498 3.2232666z" fill-rule="evenodd"/><path fill="#000000" fill-opacity="0.0" d="m656.1894 262.32266l-63.93701 0.72442627" fill-rule="evenodd"/><path stroke="#000000" stroke-width="2.0" stroke-linejoin="round" stroke-linecap="butt" d="m656.1894 262.32266l-51.937805 0.58847046" fill-rule="evenodd"/><path fill="#000000" stroke="#000000" stroke-width="2.0" stroke-linecap="butt" d="m604.2142 259.60788l-9.038147 3.406067l9.113037 3.2004395z" fill-rule="evenodd"/><path fill="#000000" fill-opacity="0.0" d="m345.17462 169.43668l-68.06299 0" fill-rule="evenodd"/><path stroke="#000000" stroke-width="2.0" stroke-linejoin="round" stroke-linecap="butt" d="m333.17462 169.43668l-56.062958 0" fill-rule="evenodd"/><path fill="#000000" stroke="#000000" stroke-width="2.0" stroke-linecap="butt" d="m333.17462 172.74014l9.076202 -3.3034668l-9.076202 -3.3034668z" fill-rule="evenodd"/><path fill="#000000" fill-opacity="0.0" d="m277.02554 262.28586l68.724396 -0.881897" fill-rule="evenodd"/><path stroke="#000000" stroke-width="2.0" stroke-linejoin="round" stroke-linecap="butt" d="m277.02554 262.28586l56.725403 -0.7279053" fill-rule="evenodd"/><path fill="#000000" stroke="#000000" stroke-width="2.0" stroke-linecap="butt" d="m333.79333 264.86115l9.033051 -3.4196472l-9.117828 -3.186737z" fill-rule="evenodd"/><path fill="#000000" fill-opacity="0.0" d="m274.97934 352.5367l70.17322 0.85040283" fill-rule="evenodd"/><path stroke="#000000" stroke-width="2.0" stroke-linejoin="round" stroke-linecap="butt" d="m274.97934 352.5367l58.174103 0.70495605" fill-rule="evenodd"/><path fill="#000000" stroke="#000000" stroke-width="2.0" stroke-linecap="butt" d="m333.1134 356.54492l9.11557 -3.1932678l-9.035492 -3.4131775z" fill-rule="evenodd"/><path fill="#000000" fill-opacity="0.0" d="m466.00018 383.41934l0 -243.11812l40.472443 0l0 243.11812z" fill-rule="evenodd"/><path stroke="#000000" stroke-width="2.0" stroke-linejoin="round" stroke-linecap="butt" d="m466.00018 383.41934l0 -243.11812l40.472443 0l0 243.11812z" fill-rule="evenodd"/><path fill="#000000" d="m493.1564 346.56116l-13.359375 3.53125l0 -1.8125l8.765625 -2.03125q1.375 -0.328125 2.71875 -0.5625q-2.140625 -0.5 -2.46875 -0.59375l-9.015625 -2.546875l0 -2.125l6.765625 -1.921875q2.515625 -0.71875 4.71875 -1.03125q-1.265625 -0.265625 -2.890625 -0.671875l-8.59375 -2.09375l0 -1.78125l13.359375 3.671875l0 1.703125l-10.171875 2.8125q-1.28125 0.359375 -1.5625 0.421875q0.90625 0.203125 1.5625 0.390625l10.171875 2.828125l0 1.8125zm0 -14.724548l-9.671875 0l0 -1.46875l1.46875 0q-1.03125 -0.5625 -1.359375 -1.03125q-0.328125 -0.484375 -0.328125 -1.0625q0 -0.828125 0.53125 -1.6875l1.515625 0.5625q-0.359375 0.609375 -0.359375 1.203125q0 0.546875 0.328125 0.96875q0.328125 0.421875 0.890625 0.609375q0.875 0.28125 1.921875 0.28125l5.0625 0l0 1.625zm-11.46875 -6.228302l-1.890625 0l0 -1.640625l1.890625 0l0 1.640625zm11.46875 0l-9.671875 0l0 -1.640625l9.671875 0l0 1.640625zm-1.46875 -7.722931l1.453125 -0.234375q0.140625 0.6875 0.140625 1.234375q0 0.890625 -0.28125 1.390625q-0.28125 0.484375 -0.734375 0.6875q-0.46875 0.203125 -1.9375 0.203125l-5.578125 0l0 1.203125l-1.265625 0l0 -1.203125l-2.390625 0l-0.984375 -1.625l3.375 0l0 -1.65625l1.265625 0l0 1.65625l5.671875 0q0.6875 0 0.890625 -0.078125q0.203125 -0.09375 0.328125 -0.28125q0.109375 -0.203125 0.109375 -0.578125q0 -0.265625 -0.0625 -0.71875zm-1.640625 -8.230194l0.203125 -1.6875q1.484375 0.40625 2.3125 1.484375q0.8125 1.078125 0.8125 2.765625q0 2.125 -1.296875 3.375q-1.3125 1.234375 -3.671875 1.234375q-2.453125 0 -3.796875 -1.25q-1.34375 -1.265625 -1.34375 -3.265625q0 -1.9375 1.328125 -3.15625q1.3125 -1.234375 3.703125 -1.234375q0.15625 0 0.4375 0l0 7.21875q1.59375 -0.09375 2.453125 -0.90625q0.84375 -0.8125 0.84375 -2.015625q0 -0.90625 -0.46875 -1.546875q-0.484375 -0.640625 -1.515625 -1.015625zm-2.65625 5.390625l0 -5.40625q-1.21875 0.109375 -1.828125 0.625q-0.953125 0.78125 -0.953125 2.03125q0 1.125 0.765625 1.90625q0.75 0.765625 2.015625 0.84375zm5.765625 -12.029053l-13.359375 -5.125l0 -1.90625l13.359375 -5.46875l0 2.015625l-4.046875 1.546875l0 5.59375l4.046875 1.46875l0 1.875zm-5.484375 -3.859375l0 -4.53125l-3.703125 1.40625q-1.6875 0.625 -2.765625 0.9375q1.28125 0.265625 2.546875 0.71875l3.921875 1.46875zm5.484375 -9.834198l-9.671875 0l0 -1.46875l1.46875 0q-1.03125 -0.5625 -1.359375 -1.03125q-0.328125 -0.484375 -0.328125 -1.0625q0 -0.828125 0.53125 -1.6875l1.515625 0.5625q-0.359375 0.609375 -0.359375 1.203125q0 0.546875 0.328125 0.96875q0.328125 0.421875 0.890625 0.609375q0.875 0.28125 1.921875 0.28125l5.0625 0l0 1.625zm0 -7.728302l0 1.515625l-13.359375 0l0 -1.640625l4.765625 0q-1.296875 -1.046875 -1.296875 -2.65625q0 -0.890625 0.359375 -1.6875q0.359375 -0.796875 1.015625 -1.3125q0.640625 -0.515625 1.5625 -0.796875q0.921875 -0.296875 1.96875 -0.296875q2.484375 0 3.84375 1.234375q1.359375 1.21875 1.359375 2.953125q0 1.703125 -1.4375 2.6875l1.21875 0zm-4.90625 0.015625q1.734375 0 2.515625 -0.484375q1.265625 -0.765625 1.265625 -2.09375q0 -1.078125 -0.9375 -1.859375q-0.9375 -0.78125 -2.78125 -0.78125q-1.890625 0 -2.796875 0.75q-0.90625 0.75 -0.90625 1.828125q0 1.0625 0.9375 1.859375q0.9375 0.78125 2.703125 0.78125zm-6.5625 -8.891357l-1.890625 0l0 -1.640625l1.890625 0l0 1.640625zm11.46875 0l-9.671875 0l0 -1.640625l9.671875 0l0 1.640625zm-1.46875 -7.722931l1.453125 -0.234375q0.140625 0.6875 0.140625 1.234375q0 0.890625 -0.28125 1.390625q-0.28125 0.484375 -0.734375 0.6875q-0.46875 0.203125 -1.9375 0.203125l-5.578125 0l0 1.203125l-1.265625 0l0 -1.203125l-2.390625 0l-0.984375 -1.625l3.375 0l0 -1.65625l1.265625 0l0 1.65625l5.671875 0q0.6875 0 0.890625 -0.078125q0.203125 -0.09375 0.328125 -0.28125q0.109375 -0.203125 0.109375 -0.578125q0 -0.265625 -0.0625 -0.71875zm1.46875 -1.5895691l-9.671875 0l0 -1.46875l1.46875 0q-1.03125 -0.5625 -1.359375 -1.03125q-0.328125 -0.484375 -0.328125 -1.0625q0 -0.828125 0.53125 -1.6875l1.515625 0.5625q-0.359375 0.609375 -0.359375 1.203125q0 0.546875 0.328125 0.96875q0.328125 0.421875 0.890625 0.609375q0.875 0.28125 1.921875 0.28125l5.0625 0l0 1.625zm-1.1875 -12.540802q0.765625 0.921875 1.09375 1.765625q0.3125 0.828125 0.3125 1.796875q0 1.59375 -0.78125 2.453125q-0.78125 0.859375 -1.984375 0.859375q-0.71875 0 -1.296875 -0.328125q-0.59375 -0.328125 -0.9375 -0.84375q-0.359375 -0.53125 -0.546875 -1.1875q-0.125 -0.46875 -0.25 -1.453125q-0.234375 -1.984375 -0.5625 -2.921875q-0.34375 -0.015625 -0.421875 -0.015625q-1.0 0 -1.421875 0.46875q-0.546875 0.625 -0.546875 1.875q0 1.15625 0.40625 1.703125q0.40625 0.546875 1.421875 0.8125l-0.21875 1.609375q-1.015625 -0.21875 -1.640625 -0.71875q-0.640625 -0.5 -0.984375 -1.453125q-0.34375 -0.953125 -0.34375 -2.1875q0 -1.25 0.296875 -2.015625q0.28125 -0.78125 0.734375 -1.140625q0.4375 -0.375 1.109375 -0.515625q0.421875 -0.078125 1.515625 -0.078125l2.1875 0q2.28125 0 2.890625 -0.109375q0.59375 -0.109375 1.15625 -0.40625l0 1.703125q-0.515625 0.265625 -1.1875 0.328125zm-3.671875 0.140625q0.375 0.890625 0.625 2.671875q0.140625 1.015625 0.328125 1.4375q0.1875 0.421875 0.53125 0.65625q0.34375 0.21875 0.78125 0.21875q0.65625 0 1.09375 -0.5q0.4375 -0.5 0.4375 -1.453125q0 -0.9375 -0.40625 -1.671875q-0.421875 -0.75 -1.140625 -1.09375q-0.5625 -0.265625 -1.640625 -0.265625l-0.609375 0zm3.390625 -7.781967l1.453125 -0.234375q0.140625 0.6875 0.140625 1.234375q0 0.890625 -0.28125 1.390625q-0.28125 0.484375 -0.734375 0.6875q-0.46875 0.203125 -1.9375 0.203125l-5.578125 0l0 1.203125l-1.265625 0l0 -1.203125l-2.390625 0l-0.984375 -1.625l3.375 0l0 -1.65625l1.265625 0l0 1.65625l5.671875 0q0.6875 0 0.890625 -0.078125q0.203125 -0.09375 0.328125 -0.28125q0.109375 -0.203125 0.109375 -0.578125q0 -0.265625 -0.0625 -0.71875zm-10.0 -1.6051788l-1.890625 0l0 -1.640625l1.890625 0l0 1.640625zm11.46875 0l-9.671875 0l0 -1.640625l9.671875 0l0 1.640625zm-4.84375 -3.5354462q-2.6875 0 -3.96875 -1.484375q-1.078125 -1.25 -1.078125 -3.046875q0 -2.0 1.3125 -3.265625q1.296875 -1.265625 3.609375 -1.265625q1.859375 0 2.9375 0.5625q1.0625 0.5625 1.65625 1.640625q0.59375 1.0625 0.59375 2.328125q0 2.03125 -1.296875 3.28125q-1.3125 1.25 -3.765625 1.25zm0 -1.6875q1.859375 0 2.796875 -0.796875q0.921875 -0.8125 0.921875 -2.046875q0 -1.21875 -0.921875 -2.03125q-0.9375 -0.8125 -2.84375 -0.8125q-1.796875 0 -2.71875 0.8125q-0.921875 0.8125 -0.921875 2.03125q0 1.234375 0.921875 2.046875q0.90625 0.796875 2.765625 0.796875zm4.84375 -9.297592l-9.671875 0l0 -1.46875l1.375 0q-1.59375 -1.0625 -1.59375 -3.078125q0 -0.875 0.3125 -1.609375q0.3125 -0.734375 0.828125 -1.09375q0.5 -0.375 1.203125 -0.515625q0.453125 -0.09375 1.59375 -0.09375l5.953125 0l0 1.640625l-5.890625 0q-1.0 0 -1.484375 0.203125q-0.5 0.1875 -0.796875 0.671875q-0.296875 0.484375 -0.296875 1.140625q0 1.046875 0.671875 1.8125q0.65625 0.75 2.515625 0.75l5.28125 0l0 1.640625zm0 -15.855896l-13.359375 0l0 -9.015625l1.578125 0l0 7.25l4.140625 0l0 -6.265625l1.578125 0l0 6.265625l6.0625 0l0 1.765625zm-4.296875 -10.708481l-0.140625 -1.65625q1.0 -0.125 1.640625 -0.546875q0.640625 -0.4375 1.046875 -1.34375q0.390625 -0.921875 0.390625 -2.0625q0 -1.0 -0.296875 -1.78125q-0.296875 -0.78125 -0.8125 -1.15625q-0.53125 -0.375 -1.15625 -0.375q-0.625 0 -1.09375 0.375q-0.46875 0.359375 -0.796875 1.1875q-0.203125 0.546875 -0.640625 2.390625q-0.453125 1.828125 -0.84375 2.5625q-0.5 0.96875 -1.234375 1.4375q-0.75 0.46875 -1.671875 0.46875q-1.0 0 -1.875 -0.578125q-0.890625 -0.578125 -1.34375 -1.671875q-0.453125 -1.109375 -0.453125 -2.453125q0 -1.484375 0.484375 -2.609375q0.46875 -1.140625 1.40625 -1.75q0.921875 -0.609375 2.09375 -0.65625l0.125 1.6875q-1.265625 0.140625 -1.90625 0.9375q-0.65625 0.78125 -0.65625 2.3125q0 1.609375 0.59375 2.34375q0.59375 0.734375 1.421875 0.734375q0.71875 0 1.171875 -0.53125q0.46875 -0.5 0.96875 -2.65625q0.484375 -2.15625 0.84375 -2.953125q0.53125 -1.171875 1.359375 -1.71875q0.828125 -0.5625 1.90625 -0.5625q1.0625 0 2.015625 0.609375q0.9375 0.609375 1.46875 1.75q0.515625 1.140625 0.515625 2.578125q0 1.8125 -0.53125 3.046875q-0.53125 1.21875 -1.59375 1.921875q-1.0625 0.6875 -2.40625 0.71875zm4.296875 -12.990448l-13.359375 0l0 -2.65625l9.453125 -3.15625q1.328125 -0.4375 1.984375 -0.640625q-0.734375 -0.234375 -2.140625 -0.703125l-9.296875 -3.203125l0 -2.375l13.359375 0l0 1.703125l-11.171875 0l11.171875 3.875l0 1.59375l-11.375 3.859375l11.375 0l0 1.703125z" fill-rule="nonzero"/><path fill="#000000" fill-opacity="0.0" d="m541.6388 263.04062l-35.18112 -1.1653442" fill-rule="evenodd"/><path stroke="#000000" stroke-width="2.0" stroke-linejoin="round" stroke-linecap="butt" d="m529.6453 262.64334l-23.187653 -0.7680664" fill-rule="evenodd"/><path fill="#000000" stroke="#000000" stroke-width="2.0" stroke-linecap="butt" d="m529.536 265.945l9.180542 -3.0011902l-8.961853 -3.6021118z" fill-rule="evenodd"/><path fill="#000000" fill-opacity="0.0" d="m466.33817 168.49706l-38.929108 0" fill-rule="evenodd"/><path stroke="#000000" stroke-width="2.0" stroke-linejoin="round" stroke-linecap="butt" d="m454.33817 168.49706l-26.929138 0" fill-rule="evenodd"/><path fill="#000000" stroke="#000000" stroke-width="2.0" stroke-linecap="butt" d="m454.33817 171.80052l9.076202 -3.3034668l-9.076202 -3.3034668z" fill-rule="evenodd"/><path fill="#000000" fill-opacity="0.0" d="m427.35986 261.34625l39.338593 -0.881897" fill-rule="evenodd"/><path stroke="#000000" stroke-width="2.0" stroke-linejoin="round" stroke-linecap="butt" d="m427.35986 261.34625l27.341614 -0.61294556" fill-rule="evenodd"/><path fill="#000000" stroke="#000000" stroke-width="2.0" stroke-linecap="butt" d="m454.7755 264.03595l8.999878 -3.506073l-9.147949 -3.0992126z" fill-rule="evenodd"/><path fill="#000000" fill-opacity="0.0" d="m426.21814 354.3105l39.77954 0.03149414" fill-rule="evenodd"/><path stroke="#000000" stroke-width="2.0" stroke-linejoin="round" stroke-linecap="butt" d="m426.21814 354.3105l27.77951 0.021972656" fill-rule="evenodd"/><path fill="#000000" stroke="#000000" stroke-width="2.0" stroke-linecap="butt" d="m453.99506 357.63596l9.078796 -3.2962952l-9.073578 -3.3106384z" fill-rule="evenodd"/><path fill="#000000" fill-opacity="0.0" d="m430.89764 71.04199l209.29132 0l0 42.015747l-209.29132 0z" fill-rule="evenodd"/><path fill="#000000" d="m445.13724 93.665115l1.65625 -0.140625q0.125 1.0 0.546875 1.640625q0.4375 0.640625 1.34375 1.046875q0.921875 0.390625 2.0625 0.390625q1.0 0 1.78125 -0.296875q0.78125 -0.296875 1.15625 -0.8125q0.375 -0.53125 0.375 -1.15625q0 -0.625 -0.375 -1.09375q-0.359375 -0.46875 -1.1875 -0.796875q-0.546875 -0.203125 -2.390625 -0.640625q-1.828125 -0.453125 -2.5625 -0.84375q-0.96875 -0.5 -1.4375 -1.234375q-0.46875 -0.75 -0.46875 -1.671875q0 -1.0 0.578125 -1.875q0.578125 -0.890625 1.671875 -1.34375q1.109375 -0.453125 2.453125 -0.453125q1.484375 0 2.609375 0.484375q1.140625 0.46875 1.75 1.40625q0.609375 0.921875 0.65625 2.09375l-1.6875 0.125q-0.140625 -1.265625 -0.9375 -1.90625q-0.78125 -0.65625 -2.3125 -0.65625q-1.609375 0 -2.34375 0.59375q-0.734375 0.59375 -0.734375 1.421875q0 0.71875 0.53125 1.171875q0.5 0.46875 2.65625 0.96875q2.15625 0.484375 2.953125 0.84375q1.171875 0.53125 1.71875 1.359375q0.5625 0.828125 0.5625 1.90625q0 1.0625 -0.609375 2.015625q-0.609375 0.9375 -1.75 1.46875q-1.140625 0.515625 -2.578125 0.515625q-1.8125 0 -3.046875 -0.53125q-1.21875 -0.53125 -1.921875 -1.59375q-0.6875 -1.0625 -0.71875 -2.40625zm12.834198 4.296875l0 -13.359375l1.640625 0l0 4.796875q1.140625 -1.328125 2.890625 -1.328125q1.078125 0 1.859375 0.421875q0.796875 0.421875 1.140625 1.171875q0.34375 0.75 0.34375 2.171875l0 6.125l-1.640625 0l0 -6.125q0 -1.234375 -0.53125 -1.796875q-0.53125 -0.5625 -1.515625 -0.5625q-0.71875 0 -1.359375 0.390625q-0.640625 0.375 -0.921875 1.015625q-0.265625 0.640625 -0.265625 1.78125l0 5.296875l-1.640625 0zm16.688202 -1.1875q-0.921875 0.765625 -1.765625 1.09375q-0.828125 0.3125 -1.796875 0.3125q-1.59375 0 -2.453125 -0.78125q-0.859375 -0.78125 -0.859375 -1.984375q0 -0.71875 0.328125 -1.296875q0.328125 -0.59375 0.84375 -0.9375q0.53125 -0.359375 1.1875 -0.546875q0.46875 -0.125 1.453125 -0.25q1.984375 -0.234375 2.921875 -0.5625q0.015625 -0.34375 0.015625 -0.421875q0 -1.0 -0.46875 -1.421875q-0.625 -0.546875 -1.875 -0.546875q-1.15625 0 -1.703125 0.40625q-0.546875 0.40625 -0.8125 1.421875l-1.609375 -0.21875q0.21875 -1.015625 0.71875 -1.640625q0.5 -0.640625 1.453125 -0.984375q0.953125 -0.34375 2.1875 -0.34375q1.25 0 2.015625 0.296875q0.78125 0.28125 1.140625 0.734375q0.375 0.4375 0.515625 1.109375q0.078125 0.421875 0.078125 1.515625l0 2.1875q0 2.28125 0.109375 2.890625q0.109375 0.59375 0.40625 1.15625l-1.703125 0q-0.265625 -0.515625 -0.328125 -1.1875zm-0.140625 -3.671875q-0.890625 0.375 -2.671875 0.625q-1.015625 0.140625 -1.4375 0.328125q-0.421875 0.1875 -0.65625 0.53125q-0.21875 0.34375 -0.21875 0.78125q0 0.65625 0.5 1.09375q0.5 0.4375 1.453125 0.4375q0.9375 0 1.671875 -0.40625q0.75 -0.421875 1.09375 -1.140625q0.265625 -0.5625 0.265625 -1.640625l0 -0.609375zm4.1882324 4.859375l0 -9.671875l1.46875 0l0 1.46875q0.5625 -1.03125 1.03125 -1.359375q0.484375 -0.328125 1.0625 -0.328125q0.828125 0 1.6875 0.53125l-0.5625 1.515625q-0.609375 -0.359375 -1.203125 -0.359375q-0.546875 0 -0.96875 0.328125q-0.421875 0.328125 -0.609375 0.890625q-0.28125 0.875 -0.28125 1.921875l0 5.0625l-1.625 0zm12.853302 -3.109375l1.6875 0.203125q-0.40625 1.484375 -1.484375 2.3125q-1.078125 0.8125 -2.765625 0.8125q-2.125 0 -3.375 -1.296875q-1.234375 -1.3125 -1.234375 -3.671875q0 -2.453125 1.25 -3.796875q1.265625 -1.34375 3.265625 -1.34375q1.9375 0 3.15625 1.328125q1.234375 1.3125 1.234375 3.703125q0 0.15625 0 0.4375l-7.21875 0q0.09375 1.59375 0.90625 2.453125q0.8125 0.84375 2.015625 0.84375q0.90625 0 1.546875 -0.46875q0.640625 -0.484375 1.015625 -1.515625zm-5.390625 -2.65625l5.40625 0q-0.109375 -1.21875 -0.625 -1.828125q-0.78125 -0.953125 -2.03125 -0.953125q-1.125 0 -1.90625 0.765625q-0.765625 0.75 -0.84375 2.015625zm15.406952 5.765625l0 -1.21875q-0.90625 1.4375 -2.703125 1.4375q-1.15625 0 -2.125 -0.640625q-0.96875 -0.640625 -1.5 -1.78125q-0.53125 -1.140625 -0.53125 -2.625q0 -1.453125 0.484375 -2.625q0.484375 -1.1875 1.4375 -1.8125q0.96875 -0.625 2.171875 -0.625q0.875 0 1.546875 0.375q0.6875 0.359375 1.109375 0.953125l0 -4.796875l1.640625 0l0 13.359375l-1.53125 0zm-5.171875 -4.828125q0 1.859375 0.78125 2.78125q0.78125 0.921875 1.84375 0.921875q1.078125 0 1.828125 -0.875q0.75 -0.890625 0.75 -2.6875q0 -1.984375 -0.765625 -2.90625q-0.765625 -0.9375 -1.890625 -0.9375q-1.078125 0 -1.8125 0.890625q-0.734375 0.890625 -0.734375 2.8125zm14.465271 -6.640625l0 -1.890625l1.6406555 0l0 1.890625l-1.6406555 0zm0 11.46875l0 -9.671875l1.6406555 0l0 9.671875l-1.6406555 0zm4.144806 0l0 -9.671875l1.46875 0l0 1.375q1.0625 -1.59375 3.078125 -1.59375q0.875 0 1.609375 0.3125q0.734375 0.3125 1.09375 0.828125q0.375 0.5 0.515625 1.203125q0.09375 0.453125 0.09375 1.59375l0 5.953125l-1.640625 0l0 -5.890625q0 -1.0 -0.203125 -1.484375q-0.1875 -0.5 -0.671875 -0.796875q-0.484375 -0.296875 -1.140625 -0.296875q-1.046875 0 -1.8125 0.671875q-0.75 0.65625 -0.75 2.515625l0 5.28125l-1.640625 0zm11.875732 0l-1.515625 0l0 -13.359375l1.640625 0l0 4.765625q1.046875 -1.296875 2.65625 -1.296875q0.890625 0 1.6875 0.359375q0.796875 0.359375 1.3125 1.015625q0.515625 0.640625 0.796875 1.5625q0.296875 0.921875 0.296875 1.96875q0 2.484375 -1.234375 3.84375q-1.21875 1.359375 -2.953125 1.359375q-1.703125 0 -2.6875 -1.4375l0 1.21875zm-0.015625 -4.90625q0 1.734375 0.484375 2.515625q0.765625 1.265625 2.09375 1.265625q1.078125 0 1.859375 -0.9375q0.78125 -0.9375 0.78125 -2.78125q0 -1.890625 -0.75 -2.796875q-0.75 -0.90625 -1.828125 -0.90625q-1.0625 0 -1.859375 0.9375q-0.78125 0.9375 -0.78125 2.703125zm8.281982 0.0625q0 -2.6875 1.484375 -3.96875q1.25 -1.078125 3.046875 -1.078125q2.0 0 3.265625 1.3125q1.265625 1.296875 1.265625 3.609375q0 1.859375 -0.5625 2.9375q-0.5625 1.0625 -1.640625 1.65625q-1.0625 0.59375 -2.328125 0.59375q-2.03125 0 -3.28125 -1.296875q-1.25 -1.3125 -1.25 -3.765625zm1.6875 0q0 1.859375 0.796875 2.796875q0.8125 0.921875 2.046875 0.921875q1.21875 0 2.03125 -0.921875q0.8125 -0.9375 0.8125 -2.84375q0 -1.796875 -0.8125 -2.71875q-0.8125 -0.921875 -2.03125 -0.921875q-1.234375 0 -2.046875 0.921875q-0.796875 0.90625 -0.796875 2.765625zm8.203857 4.84375l3.53125 -5.03125l-3.265625 -4.640625l2.046875 0l1.484375 2.265625q0.421875 0.640625 0.671875 1.078125q0.40625 -0.59375 0.734375 -1.0625l1.640625 -2.28125l1.953125 0l-3.34375 4.546875l3.59375 5.125l-2.015625 0l-1.984375 -3.0l-0.515625 -0.8125l-2.546875 3.8125l-1.984375 0zm15.605164 0l0 -9.671875l1.46875 0l0 1.359375q0.453125 -0.71875 1.203125 -1.140625q0.765625 -0.4375 1.71875 -0.4375q1.078125 0 1.765625 0.453125q0.6875 0.4375 0.96875 1.234375q1.15625 -1.6875 2.984375 -1.6875q1.453125 0 2.21875 0.796875q0.78125 0.796875 0.78125 2.453125l0 6.640625l-1.640625 0l0 -6.09375q0 -0.984375 -0.15625 -1.40625q-0.15625 -0.4375 -0.578125 -0.703125q-0.421875 -0.265625 -0.984375 -0.265625q-1.015625 0 -1.6875 0.6875q-0.671875 0.671875 -0.671875 2.15625l0 5.625l-1.640625 0l0 -6.28125q0 -1.09375 -0.40625 -1.640625q-0.40625 -0.546875 -1.3125 -0.546875q-0.6875 0 -1.28125 0.359375q-0.59375 0.359375 -0.859375 1.0625q-0.25 0.703125 -0.25 2.03125l0 5.015625l-1.640625 0zm22.165771 -3.109375l1.6875 0.203125q-0.40625 1.484375 -1.484375 2.3125q-1.078125 0.8125 -2.765625 0.8125q-2.125 0 -3.375 -1.296875q-1.234375 -1.3125 -1.234375 -3.671875q0 -2.453125 1.25 -3.796875q1.265625 -1.34375 3.265625 -1.34375q1.9375 0 3.15625 1.328125q1.234375 1.3125 1.234375 3.703125q0 0.15625 0 0.4375l-7.21875 0q0.09375 1.59375 0.90625 2.453125q0.8125 0.84375 2.015625 0.84375q0.90625 0 1.546875 -0.46875q0.640625 -0.484375 1.015625 -1.515625zm-5.390625 -2.65625l5.40625 0q-0.109375 -1.21875 -0.625 -1.828125q-0.78125 -0.953125 -2.03125 -0.953125q-1.125 0 -1.90625 0.765625q-0.765625 0.75 -0.84375 2.015625zm9.141357 5.765625l0 -9.671875l1.46875 0l0 1.359375q0.453125 -0.71875 1.203125 -1.140625q0.765625 -0.4375 1.71875 -0.4375q1.078125 0 1.765625 0.453125q0.6875 0.4375 0.96875 1.234375q1.15625 -1.6875 2.984375 -1.6875q1.453125 0 2.21875 0.796875q0.78125 0.796875 0.78125 2.453125l0 6.640625l-1.640625 0l0 -6.09375q0 -0.984375 -0.15625 -1.40625q-0.15625 -0.4375 -0.578125 -0.703125q-0.421875 -0.265625 -0.984375 -0.265625q-1.015625 0 -1.6875 0.6875q-0.671875 0.671875 -0.671875 2.15625l0 5.625l-1.640625 0l0 -6.28125q0 -1.09375 -0.40625 -1.640625q-0.40625 -0.546875 -1.3125 -0.546875q-0.6875 0 -1.28125 0.359375q-0.59375 0.359375 -0.859375 1.0625q-0.25 0.703125 -0.25 2.03125l0 5.015625l-1.640625 0zm14.9313965 -4.84375q0 -2.6875 1.484375 -3.96875q1.25 -1.078125 3.046875 -1.078125q2.0 0 3.265625 1.3125q1.265625 1.296875 1.265625 3.609375q0 1.859375 -0.5625 2.9375q-0.5625 1.0625 -1.640625 1.65625q-1.0625 0.59375 -2.328125 0.59375q-2.03125 0 -3.28125 -1.296875q-1.25 -1.3125 -1.25 -3.765625zm1.6875 0q0 1.859375 0.796875 2.796875q0.8125 0.921875 2.046875 0.921875q1.21875 0 2.03125 -0.921875q0.8125 -0.9375 0.8125 -2.84375q0 -1.796875 -0.8125 -2.71875q-0.8125 -0.921875 -2.03125 -0.921875q-1.234375 0 -2.046875 0.921875q-0.796875 0.90625 -0.796875 2.765625zm9.281982 4.84375l0 -9.671875l1.46875 0l0 1.46875q0.5625 -1.03125 1.03125 -1.359375q0.484375 -0.328125 1.0625 -0.328125q0.828125 0 1.6875 0.53125l-0.5625 1.515625q-0.609375 -0.359375 -1.203125 -0.359375q-0.546875 0 -0.96875 0.328125q-0.421875 0.328125 -0.609375 0.890625q-0.28125 0.875 -0.28125 1.921875l0 5.0625l-1.625 0zm6.1502075 3.71875l-0.1875 -1.53125q0.546875 0.140625 0.9375 0.140625q0.546875 0 0.875 -0.1875q0.328125 -0.171875 0.546875 -0.5q0.15625 -0.25 0.5 -1.21875q0.046875 -0.140625 0.140625 -0.40625l-3.671875 -9.6875l1.765625 0l2.015625 5.59375q0.390625 1.078125 0.703125 2.25q0.28125 -1.125 0.671875 -2.203125l2.078125 -5.640625l1.640625 0l-3.6875 9.828125q-0.59375 1.609375 -0.921875 2.203125q-0.4375 0.8125 -1.0 1.1875q-0.5625 0.375 -1.34375 0.375q-0.484375 0 -1.0625 -0.203125z" fill-rule="nonzero"/><path fill="#000000" fill-opacity="0.0" d="m216.99475 394.7746l0 -257.10236l42.015747 0l0 257.10236z" fill-rule="evenodd"/><path fill="#000000" d="m239.61787 370.95865l-0.140625 -1.65625q1.0 -0.125 1.640625 -0.546875q0.640625 -0.4375 1.046875 -1.34375q0.390625 -0.921875 0.390625 -2.0625q0 -1.0 -0.296875 -1.78125q-0.296875 -0.78125 -0.8125 -1.15625q-0.53125 -0.375 -1.15625 -0.375q-0.625 0 -1.09375 0.375q-0.46875 0.359375 -0.796875 1.1875q-0.203125 0.546875 -0.640625 2.390625q-0.453125 1.828125 -0.84375 2.5625q-0.5 0.96875 -1.234375 1.4375q-0.75 0.46875 -1.671875 0.46875q-1.0 0 -1.875 -0.578125q-0.890625 -0.578125 -1.34375 -1.671875q-0.453125 -1.109375 -0.453125 -2.453125q0 -1.484375 0.484375 -2.609375q0.46875 -1.140625 1.40625 -1.75q0.921875 -0.609375 2.09375 -0.65625l0.125 1.6875q-1.265625 0.140625 -1.90625 0.9375q-0.65625 0.78125 -0.65625 2.3125q0 1.609375 0.59375 2.34375q0.59375 0.734375 1.421875 0.734375q0.71875 0 1.171875 -0.53125q0.46875 -0.5 0.96875 -2.65625q0.484375 -2.15625 0.84375 -2.953125q0.53125 -1.171875 1.359375 -1.71875q0.828125 -0.5625 1.90625 -0.5625q1.0625 0 2.015625 0.609375q0.9375 0.609375 1.46875 1.75q0.515625 1.140625 0.515625 2.578125q0 1.8125 -0.53125 3.046875q-0.53125 1.21875 -1.59375 1.921875q-1.0625 0.6875 -2.40625 0.71875zm-0.546875 -12.224823q-2.6875 0 -3.96875 -1.484375q-1.078125 -1.25 -1.078125 -3.046875q0 -2.0 1.3125 -3.265625q1.296875 -1.265625 3.609375 -1.265625q1.859375 0 2.9375 0.5625q1.0625 0.5625 1.65625 1.640625q0.59375 1.0625 0.59375 2.328125q0 2.03125 -1.296875 3.28125q-1.3125 1.25 -3.765625 1.25zm0 -1.6875q1.859375 0 2.796875 -0.796875q0.921875 -0.8125 0.921875 -2.046875q0 -1.21875 -0.921875 -2.03125q-0.9375 -0.8125 -2.84375 -0.8125q-1.796875 0 -2.71875 0.8125q-0.921875 0.8125 -0.921875 2.03125q0 1.234375 0.921875 2.046875q0.90625 0.796875 2.765625 0.796875zm0.15625 -19.031982l0.453125 -1.765625q2.171875 0.5625 3.328125 2.0q1.140625 1.4375 1.140625 3.53125q0 2.15625 -0.875 3.515625q-0.890625 1.34375 -2.546875 2.0625q-1.671875 0.703125 -3.59375 0.703125q-2.078125 0 -3.625 -0.796875q-1.5625 -0.796875 -2.359375 -2.265625q-0.8125 -1.484375 -0.8125 -3.25q0 -2.0 1.015625 -3.359375q1.015625 -1.375 2.875 -1.90625l0.40625 1.734375q-1.453125 0.46875 -2.109375 1.359375q-0.671875 0.875 -0.671875 2.203125q0 1.546875 0.734375 2.578125q0.734375 1.03125 1.984375 1.453125q1.234375 0.421875 2.5625 0.421875q1.703125 0 2.96875 -0.5q1.265625 -0.5 1.90625 -1.546875q0.625 -1.046875 0.625 -2.265625q0 -1.484375 -0.859375 -2.515625q-0.859375 -1.03125 -2.546875 -1.390625zm4.6875 -9.15625l-13.359375 0l0 -5.921875q0 -1.78125 0.359375 -2.703125q0.359375 -0.9375 1.28125 -1.484375q0.90625 -0.5625 2.015625 -0.5625q1.40625 0 2.390625 0.921875q0.96875 0.921875 1.234375 2.84375q0.34375 -0.703125 0.671875 -1.078125q0.703125 -0.765625 1.765625 -1.453125l3.640625 -2.328125l0 2.21875l-2.78125 1.765625q-1.203125 0.78125 -1.828125 1.28125q-0.640625 0.5 -0.890625 0.90625q-0.265625 0.390625 -0.359375 0.796875q-0.078125 0.296875 -0.078125 0.984375l0 2.046875l5.9375 0l0 1.765625zm-7.453125 -1.765625l0 -3.796875q0 -1.21875 -0.25 -1.890625q-0.265625 -0.6875 -0.8125 -1.046875q-0.546875 -0.359375 -1.1875 -0.359375q-0.953125 0 -1.5625 0.6875q-0.609375 0.6875 -0.609375 2.1875l0 4.21875l4.421875 0zm4.34375 -18.09793l0.203125 -1.6875q1.484375 0.40625 2.3125 1.484375q0.8125 1.078125 0.8125 2.765625q0 2.125 -1.296875 3.375q-1.3125 1.234375 -3.671875 1.234375q-2.453125 0 -3.796875 -1.25q-1.34375 -1.265625 -1.34375 -3.265625q0 -1.9375 1.328125 -3.15625q1.3125 -1.234375 3.703125 -1.234375q0.15625 0 0.4375 0l0 7.21875q1.59375 -0.09375 2.453125 -0.90625q0.84375 -0.8125 0.84375 -2.015625q0 -0.90625 -0.46875 -1.546875q-0.484375 -0.640625 -1.515625 -1.015625zm-2.65625 5.390625l0 -5.40625q-1.21875 0.109375 -1.828125 0.625q-0.953125 0.78125 -0.953125 2.03125q0 1.125 0.765625 1.90625q0.75 0.765625 2.015625 0.84375zm9.46875 -15.297607l-4.734375 0q0.546875 0.375 0.90625 1.0625q0.34375 0.6875 0.34375 1.46875q0 1.71875 -1.375 2.96875q-1.375 1.234375 -3.765625 1.234375q-1.46875 0 -2.625 -0.5q-1.15625 -0.515625 -1.75 -1.46875q-0.59375 -0.96875 -0.59375 -2.109375q0 -1.796875 1.515625 -2.828125l-1.296875 0l0 -1.46875l13.375 0l0 1.640625zm-8.5625 5.046875q1.859375 0 2.796875 -0.78125q0.9375 -0.78125 0.9375 -1.875q0 -1.046875 -0.890625 -1.796875q-0.890625 -0.765625 -2.703125 -0.765625q-1.9375 0 -2.90625 0.796875q-0.96875 0.796875 -0.96875 1.875q0 1.0625 0.90625 1.8125q0.90625 0.734375 2.828125 0.734375zm4.859375 -15.594452l-1.421875 0q1.640625 1.125 1.640625 3.0625q0 0.859375 -0.328125 1.609375q-0.328125 0.734375 -0.828125 1.09375q-0.5 0.359375 -1.21875 0.5q-0.46875 0.109375 -1.53125 0.109375l-5.984375 0l0 -1.640625l5.359375 0q1.28125 0 1.734375 -0.109375q0.640625 -0.15625 1.015625 -0.65625q0.375 -0.5 0.375 -1.234375q0 -0.734375 -0.375 -1.375q-0.390625 -0.65625 -1.03125 -0.921875q-0.65625 -0.265625 -1.890625 -0.265625l-5.1875 0l0 -1.640625l9.671875 0l0 1.46875zm-3.109375 -10.672607l0.203125 -1.6875q1.484375 0.40625 2.3125 1.484375q0.8125 1.078125 0.8125 2.765625q0 2.125 -1.296875 3.375q-1.3125 1.234375 -3.671875 1.234375q-2.453125 0 -3.796875 -1.25q-1.34375 -1.265625 -1.34375 -3.265625q0 -1.9375 1.328125 -3.15625q1.3125 -1.234375 3.703125 -1.234375q0.15625 0 0.4375 0l0 7.21875q1.59375 -0.09375 2.453125 -0.90625q0.84375 -0.8125 0.84375 -2.015625q0 -0.90625 -0.46875 -1.546875q-0.484375 -0.640625 -1.515625 -1.015625zm-2.65625 5.390625l0 -5.40625q-1.21875 0.109375 -1.828125 0.625q-0.953125 0.78125 -0.953125 2.03125q0 1.125 0.765625 1.90625q0.75 0.765625 2.015625 0.84375zm2.875 -8.485077l-0.25 -1.625q0.96875 -0.125 1.5 -0.75q0.515625 -0.625 0.515625 -1.75q0 -1.125 -0.453125 -1.671875q-0.46875 -0.546875 -1.09375 -0.546875q-0.546875 0 -0.875 0.484375q-0.21875 0.328125 -0.546875 1.671875q-0.46875 1.8125 -0.796875 2.515625q-0.328125 0.6875 -0.90625 1.046875q-0.59375 0.359375 -1.3125 0.359375q-0.640625 0 -1.1875 -0.296875q-0.5625 -0.296875 -0.921875 -0.8125q-0.28125 -0.375 -0.46875 -1.03125q-0.203125 -0.671875 -0.203125 -1.421875q0 -1.140625 0.328125 -2.0q0.328125 -0.859375 0.890625 -1.265625q0.5625 -0.421875 1.5 -0.578125l0.21875 1.609375q-0.75 0.109375 -1.171875 0.640625q-0.421875 0.515625 -0.421875 1.46875q0 1.140625 0.375 1.625q0.375 0.46875 0.875 0.46875q0.3125 0 0.578125 -0.1875q0.265625 -0.203125 0.4375 -0.640625q0.09375 -0.234375 0.421875 -1.4375q0.453125 -1.75 0.75 -2.4375q0.296875 -0.6875 0.859375 -1.078125q0.5625 -0.390625 1.40625 -0.390625q0.828125 0 1.546875 0.484375q0.71875 0.46875 1.125 1.375q0.390625 0.90625 0.390625 2.046875q0 1.875 -0.78125 2.875q-0.78125 0.984375 -2.328125 1.25zm1.421875 -13.5625l1.453125 -0.234375q0.140625 0.6875 0.140625 1.234375q0 0.890625 -0.28125 1.390625q-0.28125 0.484375 -0.734375 0.6875q-0.46875 0.203125 -1.9375 0.203125l-5.578125 0l0 1.203125l-1.265625 0l0 -1.203125l-2.390625 0l-0.984375 -1.625l3.375 0l0 -1.65625l1.265625 0l0 1.65625l5.671875 0q0.6875 0 0.890625 -0.078125q0.203125 -0.09375 0.328125 -0.28125q0.109375 -0.203125 0.109375 -0.578125q0 -0.265625 -0.0625 -0.71875zm-1.640625 -8.230194l0.203125 -1.6875q1.484375 0.40625 2.3125 1.484375q0.8125 1.078125 0.8125 2.765625q0 2.125 -1.296875 3.375q-1.3125 1.234375 -3.671875 1.234375q-2.453125 0 -3.796875 -1.25q-1.34375 -1.265625 -1.34375 -3.265625q0 -1.9375 1.328125 -3.15625q1.3125 -1.234375 3.703125 -1.234375q0.15625 0 0.4375 0l0 7.21875q1.59375 -0.09375 2.453125 -0.90625q0.84375 -0.8125 0.84375 -2.015625q0 -0.90625 -0.46875 -1.546875q-0.484375 -0.640625 -1.515625 -1.015625zm-2.65625 5.390625l0 -5.40625q-1.21875 0.109375 -1.828125 0.625q-0.953125 0.78125 -0.953125 2.03125q0 1.125 0.765625 1.90625q0.75 0.765625 2.015625 0.84375zm5.765625 -9.125702l-9.671875 0l0 -1.46875l1.46875 0q-1.03125 -0.5625 -1.359375 -1.03125q-0.328125 -0.484375 -0.328125 -1.0625q0 -0.828125 0.53125 -1.6875l1.515625 0.5625q-0.359375 0.609375 -0.359375 1.203125q0 0.546875 0.328125 0.96875q0.328125 0.421875 0.890625 0.609375q0.875 0.28125 1.921875 0.28125l5.0625 0l0 1.625zm-2.890625 -5.572052l-0.25 -1.625q0.96875 -0.125 1.5 -0.75q0.515625 -0.625 0.515625 -1.75q0 -1.125 -0.453125 -1.671875q-0.46875 -0.546875 -1.09375 -0.546875q-0.546875 0 -0.875 0.484375q-0.21875 0.328125 -0.546875 1.671875q-0.46875 1.8125 -0.796875 2.515625q-0.328125 0.6875 -0.90625 1.046875q-0.59375 0.359375 -1.3125 0.359375q-0.640625 0 -1.1875 -0.296875q-0.5625 -0.296875 -0.921875 -0.8125q-0.28125 -0.375 -0.46875 -1.03125q-0.203125 -0.671875 -0.203125 -1.421875q0 -1.140625 0.328125 -2.0q0.328125 -0.859375 0.890625 -1.265625q0.5625 -0.421875 1.5 -0.578125l0.21875 1.609375q-0.75 0.109375 -1.171875 0.640625q-0.421875 0.515625 -0.421875 1.46875q0 1.140625 0.375 1.625q0.375 0.46875 0.875 0.46875q0.3125 0 0.578125 -0.1875q0.265625 -0.203125 0.4375 -0.640625q0.09375 -0.234375 0.421875 -1.4375q0.453125 -1.75 0.75 -2.4375q0.296875 -0.6875 0.859375 -1.078125q0.5625 -0.390625 1.40625 -0.390625q0.828125 0 1.546875 0.484375q0.71875 0.46875 1.125 1.375q0.390625 0.90625 0.390625 2.046875q0 1.875 -0.78125 2.875q-0.78125 0.984375 -2.328125 1.25zm3.125 -13.933319l-13.8125 -3.875l0 -1.3125l13.8125 3.859375l0 1.328125zm-0.234375 -14.132233l-13.359375 3.53125l0 -1.8125l8.765625 -2.03125q1.375 -0.328125 2.71875 -0.5625q-2.140625 -0.5 -2.46875 -0.59375l-9.015625 -2.546875l0 -2.125l6.765625 -1.921875q2.515625 -0.71875 4.71875 -1.03125q-1.265625 -0.265625 -2.890625 -0.671875l-8.59375 -2.09375l0 -1.78125l13.359375 3.671875l0 1.703125l-10.171875 2.8125q-1.28125 0.359375 -1.5625 0.421875q0.90625 0.203125 1.5625 0.390625l10.171875 2.828125l0 1.8125zm0 -14.724518l-9.671875 0l0 -1.46875l1.46875 0q-1.03125 -0.5625 -1.359375 -1.03125q-0.328125 -0.484375 -0.328125 -1.0625q0 -0.828125 0.53125 -1.6875l1.515625 0.5625q-0.359375 0.609375 -0.359375 1.203125q0 0.546875 0.328125 0.96875q0.328125 0.421875 0.890625 0.609375q0.875 0.28125 1.921875 0.28125l5.0625 0l0 1.625zm-11.46875 -6.228302l-1.890625 0l0 -1.640625l1.890625 0l0 1.640625zm11.46875 0l-9.671875 0l0 -1.640625l9.671875 0l0 1.640625zm-1.46875 -7.7229614l1.453125 -0.234375q0.140625 0.6875 0.140625 1.234375q0 0.890625 -0.28125 1.390625q-0.28125 0.484375 -0.734375 0.6875q-0.46875 0.203125 -1.9375 0.203125l-5.578125 0l0 1.203125l-1.265625 0l0 -1.203125l-2.390625 0l-0.984375 -1.625l3.375 0l0 -1.65625l1.265625 0l0 1.65625l5.671875 0q0.6875 0 0.890625 -0.078125q0.203125 -0.09375 0.328125 -0.28125q0.109375 -0.203125 0.109375 -0.578125q0 -0.265625 -0.0625 -0.71875zm-1.640625 -8.230164l0.203125 -1.6875q1.484375 0.40625 2.3125 1.484375q0.8125 1.078125 0.8125 2.765625q0 2.125 -1.296875 3.375q-1.3125 1.234375 -3.671875 1.234375q-2.453125 0 -3.796875 -1.25q-1.34375 -1.265625 -1.34375 -3.265625q0 -1.9375 1.328125 -3.15625q1.3125 -1.234375 3.703125 -1.234375q0.15625 0 0.4375 0l0 7.21875q1.59375 -0.09375 2.453125 -0.90625q0.84375 -0.8125 0.84375 -2.015625q0 -0.90625 -0.46875 -1.546875q-0.484375 -0.640625 -1.515625 -1.015625zm-2.65625 5.390625l0 -5.40625q-1.21875 0.109375 -1.828125 0.625q-0.953125 0.78125 -0.953125 2.03125q0 1.125 0.765625 1.90625q0.75 0.765625 2.015625 0.84375zm5.765625 -9.125732l-9.671875 0l0 -1.46875l1.46875 0q-1.03125 -0.5625 -1.359375 -1.03125q-0.328125 -0.484375 -0.328125 -1.0625q0 -0.828125 0.53125 -1.6875l1.515625 0.5625q-0.359375 0.609375 -0.359375 1.203125q0 0.546875 0.328125 0.96875q0.328125 0.421875 0.890625 0.609375q0.875 0.28125 1.921875 0.28125l5.0625 0l0 1.625zm-2.890625 -5.572052l-0.25 -1.625q0.96875 -0.125 1.5 -0.75q0.515625 -0.625 0.515625 -1.75q0 -1.125 -0.453125 -1.671875q-0.46875 -0.546875 -1.09375 -0.546875q-0.546875 0 -0.875 0.484375q-0.21875 0.328125 -0.546875 1.671875q-0.46875 1.8125 -0.796875 2.515625q-0.328125 0.6875 -0.90625 1.046875q-0.59375 0.359375 -1.3125 0.359375q-0.640625 0 -1.1875 -0.296875q-0.5625 -0.296875 -0.921875 -0.8125q-0.28125 -0.375 -0.46875 -1.03125q-0.203125 -0.671875 -0.203125 -1.421875q0 -1.140625 0.328125 -2.0q0.328125 -0.859375 0.890625 -1.265625q0.5625 -0.421875 1.5 -0.578125l0.21875 1.609375q-0.75 0.109375 -1.171875 0.640625q-0.421875 0.515625 -0.421875 1.46875q0 1.140625 0.375 1.625q0.375 0.46875 0.875 0.46875q0.3125 0 0.578125 -0.1875q0.265625 -0.203125 0.4375 -0.640625q0.09375 -0.234375 0.421875 -1.4375q0.453125 -1.75 0.75 -2.4375q0.296875 -0.6875 0.859375 -1.078125q0.5625 -0.390625 1.40625 -0.390625q0.828125 0 1.546875 0.484375q0.71875 0.46875 1.125 1.375q0.390625 0.90625 0.390625 2.046875q0 1.875 -0.78125 2.875q-0.78125 0.984375 -2.328125 1.25z" fill-rule="nonzero"/></g></svg>